<?xml version="1.0" encoding="UTF-8" standalone="no"?>
<!-- Created with Inkscape (http://www.inkscape.org/) -->

<svg
   width="512"
   height="512"
   viewBox="0 0 135.46667 135.46667"
   version="1.1"
   id="svg5"
   inkscape:version="1.1 (c68e22c387, 2021-05-23)"
   sodipodi:docname="alura.svg"
   xmlns:inkscape="http://www.inkscape.org/namespaces/inkscape"
   xmlns:sodipodi="http://sodipodi.sourceforge.net/DTD/sodipodi-0.dtd"
   xmlns:xlink="http://www.w3.org/1999/xlink"
   xmlns="http://www.w3.org/2000/svg"
   xmlns:svg="http://www.w3.org/2000/svg">
  <sodipodi:namedview
     id="namedview7"
     pagecolor="#505050"
     bordercolor="#eeeeee"
     borderopacity="1"
     inkscape:pageshadow="0"
     inkscape:pageopacity="0"
     inkscape:pagecheckerboard="0"
     inkscape:document-units="px"
     showgrid="false"
     inkscape:zoom="0.35907766"
     inkscape:cx="-96.079494"
     inkscape:cy="129.49845"
     inkscape:window-width="1366"
     inkscape:window-height="705"
     inkscape:window-x="-8"
     inkscape:window-y="-8"
     inkscape:window-maximized="1"
     inkscape:current-layer="layer1" />
  <defs
     id="defs2" />
  <g
     inkscape:groupmode="layer"
     id="alura__logo"
     inkscape:label="Capa 1"
     style="display:inline">
    <path
       style="fill:#0a3871;fill-opacity:1;stroke-width:0.26577"
       d="m 59.606338,128.1768 c -10.102711,-1.24291 -18.577075,-4.9076 -23.616508,-10.21281 -2.216288,-2.33317 -3.806725,-4.93419 -4.920842,-8.0476 l -0.830192,-2.31998 V 96.035429 84.474452 l 0.748532,-2.390465 c 2.02067,-6.453067 5.399963,-11.3731 9.825747,-14.30565 3.959507,-2.623595 8.014644,-4.190227 19.009628,-7.344046 12.303459,-3.529141 16.661791,-5.21062 20.423634,-7.879587 3.084669,-2.188525 5.136107,-5.178968 6.102012,-8.895086 0.545588,-2.099038 0.608134,-5.991539 0.127806,-7.953889 -0.555341,-2.268816 -2.03566,-4.861311 -3.644794,-6.383164 -3.448246,-3.261208 -10.346681,-4.935003 -17.60823,-4.272355 -7.482517,0.682813 -11.495726,2.756339 -13.578913,7.015892 -0.909589,1.859858 -1.871356,5.365235 -1.871356,6.820578 0,1.862612 0.389462,1.787601 -10.277358,1.979444 -7.682698,0.138171 -9.657093,0.104384 -9.832849,-0.168269 -0.120951,-0.187636 -0.259263,-1.836112 -0.307354,-3.663278 -0.149432,-5.677227 1.030261,-11.173314 3.178346,-14.807645 1.13022,-1.912214 4.657456,-5.639457 6.741316,-7.123573 6.682107,-4.75897 14.625527,-7.2339332 25.086777,-7.8163893 9.385364,-0.5225539 18.688241,0.7126723 25.241721,3.3515693 7.225696,2.909579 12.954129,8.421571 15.549149,14.961653 l 0.7934,1.999564 0.19003,9.301936 c 0.10452,5.116065 0.27082,22.158541 0.36957,37.872169 0.17532,27.898989 0.1671,28.627009 -0.3499,30.986859 -0.6548,2.98883 -2.04924,6.751 -3.25102,8.77116 -3.809486,6.40364 -12.607026,10.97218 -25.358904,13.16883 -3.629746,0.62526 -14.403014,0.91117 -17.939448,0.47609 z m 16.211946,-18.45441 c 2.68217,-0.57475 5.559778,-1.96237 6.870636,-3.31312 1.448723,-1.49281 2.263788,-2.95306 3.291926,-5.89775 l 0.866876,-2.482819 -0.09494,-14.750213 c -0.05222,-8.112617 -0.130288,-14.788422 -0.173497,-14.835121 -0.04321,-0.0467 -0.796546,0.443644 -1.674088,1.089653 -2.257933,1.662198 -5.542458,3.54585 -7.953509,4.561289 -2.02205,0.851606 -3.17651,1.20846 -10.435343,3.225665 -6.461909,1.795741 -9.479053,3.418158 -12.574854,6.761912 -3.007903,3.248813 -4.426544,6.99457 -4.426544,11.687774 0,8.21417 4.03278,13.14635 11.714335,14.3269 2.536986,0.3899 12.177114,0.14265 14.589,-0.37417 z"
       id="path890" />
  </g>
</svg>
