<?xml version="1.0" encoding="UTF-8" standalone="no"?>
<!-- Created with Inkscape (http://www.inkscape.org/) -->

<svg
   width="110"
   height="110"
   viewBox="0 0 29.104167 29.104167"
   version="1.1"
   id="svg5"
   inkscape:version="1.1 (c68e22c387, 2021-05-23)"
   sodipodi:docname="alura.svg"
   xmlns:inkscape="http://www.inkscape.org/namespaces/inkscape"
   xmlns:sodipodi="http://sodipodi.sourceforge.net/DTD/sodipodi-0.dtd"
   xmlns="http://www.w3.org/2000/svg"
   xmlns:svg="http://www.w3.org/2000/svg">
  <sodipodi:namedview
     id="namedview7"
     pagecolor="#505050"
     bordercolor="#eeeeee"
     borderopacity="1"
     inkscape:pageshadow="0"
     inkscape:pageopacity="0"
     inkscape:pagecheckerboard="0"
     inkscape:document-units="px"
     showgrid="false"
     inkscape:zoom="1.4363106"
     inkscape:cx="92.250239"
     inkscape:cy="53.261459"
     inkscape:window-width="1366"
     inkscape:window-height="705"
     inkscape:window-x="-8"
     inkscape:window-y="-8"
     inkscape:window-maximized="1"
     inkscape:current-layer="alura__logo"
     width="110px" />
  <defs
     id="defs2" />
  <g
     inkscape:groupmode="layer"
     id="alura__logo"
     inkscape:label="Capa 1"
     style="display:inline">
    <path
       style="fill:#0a3871;fill-opacity:1;stroke-width:0.265771"
       d="M 12.28171,28.441057 C 9.9828653,28.158236 8.0545465,27.324345 6.907837,26.117159 6.4035266,25.586253 6.0416269,24.994397 5.7881125,24.285949 L 5.5992046,23.758044 v -2.63067 -2.630669 L 5.769531,17.952761 c 0.4597981,-1.468378 1.2287472,-2.587918 2.2358225,-3.255212 0.9009752,-0.596992 1.8237108,-0.953475 4.3255895,-1.671118 2.799619,-0.803047 3.791346,-1.185663 4.647343,-1.792979 0.701908,-0.497993 1.168708,-1.17846 1.388497,-2.0240534 0.124147,-0.477631 0.138379,-1.363359 0.02908,-1.8098862 -0.126365,-0.516263 -0.463207,-1.1061783 -0.829361,-1.4524719 -0.78464,-0.7420791 -2.35436,-1.1229467 -4.006706,-0.9721629 -1.702627,0.1553723 -2.615821,0.6271975 -3.089845,1.5964474 -0.206974,0.4232057 -0.425822,1.2208446 -0.425822,1.5520046 0,0.423832 0.08862,0.406763 -2.3385852,0.450417 -1.7481775,0.03144 -2.1974458,0.02375 -2.2374386,-0.03829 C 5.4405832,8.4927616 5.4091106,8.1176546 5.3981677,7.7018886 5.3641648,6.4100504 5.6326008,5.1594305 6.1213918,4.3324483 6.3785703,3.8973291 7.1811835,3.0492049 7.6553603,2.7114983 9.1758558,1.6286075 10.98336,1.0654363 13.363789,0.93289991 15.499403,0.8139942 17.616248,1.0950666 19.107475,1.6955405 c 1.644188,0.662067 2.947677,1.9163059 3.538167,3.404484 l 0.180536,0.4549955 0.04324,2.1166306 c 0.02378,1.164147 0.06162,5.0421174 0.08409,8.6177114 0.03989,6.34834 0.03802,6.513999 -0.07962,7.050976 -0.148998,0.6801 -0.466299,1.536172 -0.739761,1.995854 -0.866839,1.457131 -2.868695,2.49669 -5.770351,2.996532 -0.825939,0.142276 -3.277367,0.207334 -4.082073,0.108333 z m 3.688985,-4.199252 c 0.61032,-0.130783 1.265112,-0.446532 1.563395,-0.753891 0.329653,-0.339685 0.515118,-0.671961 0.749068,-1.342017 l 0.197256,-0.564959 -0.0216,-3.356371 c -0.01188,-1.846005 -0.02965,-3.365066 -0.03948,-3.375692 -0.0098,-0.01063 -0.181252,0.10095 -0.380935,0.247947 -0.513786,0.378229 -1.261171,0.806849 -1.809799,1.037909 -0.460112,0.193781 -0.722807,0.274982 -2.374535,0.733992 -1.47039,0.408616 -2.156933,0.777792 -2.861374,1.538655 -0.68444,0.739258 -1.0072478,1.591595 -1.0072478,2.659521 0,1.869112 0.9176488,2.991417 2.6655648,3.260048 0.577285,0.08872 2.77087,0.03246 3.319688,-0.08514 z"
       id="path890" />
  </g>
</svg>
