<?xml version="1.0" encoding="UTF-8" standalone="no"?>
<!-- Created with Inkscape (http://www.inkscape.org/) -->

<svg
   width="512"
   height="512"
   viewBox="0 0 135.46667 135.46667"
   version="1.1"
   id="svg5"
   inkscape:version="1.1 (c68e22c387, 2021-05-23)"
   sodipodi:docname="logo.svg"
   inkscape:export-filename="D:\DLR-ASESORES\EMPRESAS\LOGOS\logos_svg\logodlr_margencircular.png"
   inkscape:export-xdpi="51"
   inkscape:export-ydpi="51"
   xmlns:inkscape="http://www.inkscape.org/namespaces/inkscape"
   xmlns:sodipodi="http://sodipodi.sourceforge.net/DTD/sodipodi-0.dtd"
   xmlns:xlink="http://www.w3.org/1999/xlink"
   xmlns="http://www.w3.org/2000/svg"
   xmlns:svg="http://www.w3.org/2000/svg">
  <sodipodi:namedview
     id="namedview7"
     pagecolor="#505050"
     bordercolor="#eeeeee"
     borderopacity="1"
     inkscape:pageshadow="0"
     inkscape:pageopacity="0"
     inkscape:pagecheckerboard="0"
     inkscape:document-units="px"
     showgrid="false"
     inkscape:snap-global="true"
     inkscape:snap-bbox="true"
     inkscape:bbox-paths="false"
     inkscape:object-paths="false"
     inkscape:object-nodes="true"
     inkscape:snap-others="false"
     inkscape:snap-nodes="false"
     inkscape:zoom="0.5"
     inkscape:cx="44"
     inkscape:cy="241"
     inkscape:window-width="1366"
     inkscape:window-height="705"
     inkscape:window-x="-8"
     inkscape:window-y="-8"
     inkscape:window-maximized="1"
     inkscape:current-layer="layer1" />
  <defs
     id="defs2">
    <marker
       id="ExperimentalArrow"
       refX="5.0"
       refY="3.0"
       orient="auto-start-reverse"
       inkscape:stockid="ExperimentalArrow"
       inkscape:isstock="true">
      <path
         style="fill:context-stroke"
         d="m 10,3 -10,3 0,-6 z"
         id="path24706" />
    </marker>
    <marker
       style="overflow:visible"
       id="SquareL"
       refX="0.0"
       refY="0.0"
       orient="auto"
       inkscape:stockid="SquareL"
       inkscape:isstock="true">
      <path
         transform="scale(0.8)"
         style="fill-rule:evenodd;fill:context-stroke;stroke:context-stroke;stroke-width:1.0pt"
         d="M -5.0,-5.0 L -5.0,5.0 L 5.0,5.0 L 5.0,-5.0 L -5.0,-5.0 z "
         id="path24523" />
    </marker>
    <marker
       style="overflow:visible;"
       id="Arrow1Lend"
       refX="0.0"
       refY="0.0"
       orient="auto"
       inkscape:stockid="Arrow1Lend"
       inkscape:isstock="true">
      <path
         transform="scale(0.8) rotate(180) translate(12.5,0)"
         style="fill-rule:evenodd;fill:context-stroke;stroke:context-stroke;stroke-width:1.0pt;"
         d="M 0.0,0.0 L 5.0,-5.0 L -12.5,0.0 L 5.0,5.0 L 0.0,0.0 z "
         id="path24456" />
    </marker>
    <marker
       style="overflow:visible"
       id="Arrow1Lstart"
       refX="0.0"
       refY="0.0"
       orient="auto"
       inkscape:stockid="Arrow1Lstart"
       inkscape:isstock="true">
      <path
         transform="scale(0.8) translate(12.5,0)"
         style="fill-rule:evenodd;fill:context-stroke;stroke:context-stroke;stroke-width:1.0pt"
         d="M 0.0,0.0 L 5.0,-5.0 L -12.5,0.0 L 5.0,5.0 L 0.0,0.0 z "
         id="path24453" />
    </marker>
    <linearGradient
       id="linearGradient24430"
       inkscape:swatch="solid">
      <stop
         style="stop-color:#ffffff;stop-opacity:1;"
         offset="0"
         id="stop24428" />
    </linearGradient>
    <linearGradient
       inkscape:collect="always"
       xlink:href="#linearGradient9603-6"
       id="linearGradient9873-0"
       gradientUnits="userSpaceOnUse"
       x1="63.708313"
       y1="48.196472"
       x2="66.615051"
       y2="104.79811"
       gradientTransform="translate(1.6871126,-3.1219494)" />
    <linearGradient
       inkscape:collect="always"
       id="linearGradient9603-6">
      <stop
         style="stop-color:#e32534;stop-opacity:1"
         offset="0"
         id="stop9599-0" />
      <stop
         style="stop-color:#0a49ec;stop-opacity:1"
         offset="1"
         id="stop9601-4" />
    </linearGradient>
    <linearGradient
       inkscape:collect="always"
       xlink:href="#linearGradient10647-2"
       id="linearGradient10375-3"
       x1="36.908566"
       y1="85.815926"
       x2="45.983063"
       y2="89.398132"
       gradientUnits="userSpaceOnUse"
       gradientTransform="translate(1.6871126,-3.1219494)" />
    <linearGradient
       inkscape:collect="always"
       id="linearGradient10647-2">
      <stop
         style="stop-color:#e32534;stop-opacity:1"
         offset="0"
         id="stop10643-7" />
      <stop
         style="stop-color:#b6001e;stop-opacity:0"
         offset="1"
         id="stop10645-1" />
    </linearGradient>
    <linearGradient
       inkscape:collect="always"
       xlink:href="#linearGradient10927"
       id="linearGradient10921"
       x1="63.569298"
       y1="39.634449"
       x2="63.231495"
       y2="82.496948"
       gradientUnits="userSpaceOnUse"
       gradientTransform="translate(1.6871126,-3.1219494)" />
    <linearGradient
       inkscape:collect="always"
       id="linearGradient10927">
      <stop
         style="stop-color:#e32534;stop-opacity:1"
         offset="0"
         id="stop10923" />
      <stop
         style="stop-color:#5a00ff;stop-opacity:0"
         offset="1"
         id="stop10925" />
    </linearGradient>
    <linearGradient
       inkscape:collect="always"
       xlink:href="#linearGradient2402"
       id="linearGradient2034"
       gradientUnits="userSpaceOnUse"
       x1="36.908566"
       y1="85.815926"
       x2="45.983063"
       y2="89.398132"
       gradientTransform="translate(1.6871126,-3.1219494)" />
    <linearGradient
       inkscape:collect="always"
       id="linearGradient2402">
      <stop
         style="stop-color:#e32534;stop-opacity:1"
         offset="0"
         id="stop2398" />
      <stop
         style="stop-color:#e32534;stop-opacity:0"
         offset="1"
         id="stop2400" />
    </linearGradient>
  </defs>
  <g
     inkscape:groupmode="layer"
     id="layer6"
     inkscape:label="Layer 6"
     style="display:none">
    <ellipse
       style="opacity:1;fill:#ffffff;fill-opacity:1;stroke:#ffffff;stroke-width:1.97273;stroke-miterlimit:10;stroke-dasharray:none;stroke-opacity:0.911647"
       id="path1169"
       cx="67.733337"
       cy="67.733337"
       rx="67.143837"
       ry="67.143845" />
  </g>
  <g
     inkscape:groupmode="layer"
     id="layer1"
     inkscape:label="Layer 3">
    <path
       style="display:inline;mix-blend-mode:normal;fill:#ffffff;fill-opacity:1;stroke:#ffffff;stroke-width:1.98438;stroke-miterlimit:10;stroke-dasharray:none;stroke-opacity:1"
       d="m 35.4366,128.40392 c 0,0 9.17343,-21.37939 12.69404,-32.446772 2.25416,-7.08615 5.36878,-21.652454 5.36878,-21.652454 0,0 0.22227,-0.705144 1.12958,-1.007043 0.9073,-0.301898 1.84434,-0.542304 2.76082,-0.388293 1.05215,0.176809 2.27248,0.907161 2.84972,1.457275 0.57723,0.550114 0.46463,1.101316 0.46463,1.101316 0,0 -3.29427,15.119249 -5.69348,22.460943 -2.42527,7.421488 -8.76306,21.722108 -8.76306,21.722108 4.84905,-2.86715 8.05097,-5.23217 12.55159,-5.01732 4.27861,0.20426 7.14228,5.75507 11.4238,5.88482 3.611862,0.10946 9.919982,-4.37173 9.919982,-4.37173 -3.44372,4.10434 -6.99484,8.10694 -10.373462,12.26555 0,0 -8.72277,-5.33622 -13.63121,-5.64793 -7.13767,-0.45328 -14.87386,1.53194 -20.70173,5.63953 z M 74.617632,76.77953 c -1.70737,-1.516342 -6.538202,-2.0449 -6.538202,-2.0449 3.361502,-0.990346 6.992952,-5.018459 10.443302,-3.701192 14.05655,5.366467 7.54997,34.404212 21.672238,39.595282 7.02858,2.58357 15.88465,-4.6782 20.98125,-8.0293 -5.56612,6.50697 -11.74547,16.56823 -20.53862,20.72428 -1.446988,0.68391 -3.276158,0.99268 -4.780598,0.44663 -1.10421,-0.40079 -1.86697,-1.50109 -2.48167,-2.50213 -1.87069,-3.0464 -2.07927,-6.84801 -3.37467,-10.17996 -4.54153,-11.681418 -6.01203,-25.986169 -15.38303,-34.30871 z M 21.11217,98.428592 c -4.90438,-1.791574 -6.91525,-8.784524 -7.01619,-14.004922 -0.10719,-5.543625 2.87944,-11.299584 6.87014,-15.148947 4.15196,-4.004917 10.29223,-5.798927 16.0085,-6.575042 7.59452,-1.03113 15.21426,3.628621 22.82774,2.748373 6.25231,-0.722874 12.505182,-2.976144 17.736922,-6.475117 5.1522,-3.445773 10.26058,-7.953749 12.56399,-13.708121 2.54353,-6.354251 3.68274,-14.521792 0.40311,-20.529296 C 87.185062,18.651634 79.005052,13.549952 71.675222,13.367873 57.75655,13.022124 45.71187,17.993235 34.88893,33.151911 41.46073,18.086193 57.15632,7.1042845 74.483422,7.1940635 c 8.34157,-0.147547 16.90778,2.6056556 22.01305,8.6062895 5.017358,5.897292 6.733658,14.017428 4.883108,22.709522 -1.11298,5.22774 -4.144048,9.998252 -7.446848,14.200578 -3.0198,3.842267 -6.85182,7.112058 -11.00707,9.684246 -4.36131,2.69974 -9.34249,4.315043 -14.249722,5.807892 -2.14483,0.652486 -4.35333,1.164871 -6.5867,1.359986 -9.29439,0.811987 -19.27696,-4.189547 -27.97733,-0.820792 -5.25305,2.033964 -10.53983,6.344972 -12.15364,11.741933 -1.34044,4.482773 -0.85064,11.16164 3.08391,13.69372 3.31725,2.13482 11.58513,-2.41642 11.58513,-2.41642 -4.28366,4.41717 -10.22782,8.599042 -15.51514,6.667574 z M 57.82728,60.823628 c -0.99149,-0.01703 -2.9372,0.472107 -2.9372,0.472107 0,0 0.98969,-10.155184 1.133,-14.436917 0.24271,-8.217493 0.51537,-17.747455 -0.81287,-25.439291 l 2.60575,1.257871 c 0,0 1.94616,1.075922 2.23616,2.043015 3.26465,10.887014 1.16291,36.857266 1.16291,36.857266 0,0 -2.32846,-0.728028 -3.38775,-0.754051 z"
       id="path29345"
       sodipodi:nodetypes="cacsascacaaccacacaacaaaaaaaaaaaasaccasaaaaaaacacccccscc" />
  </g>
  <g
     inkscape:groupmode="layer"
     id="layer2"
     inkscape:label="Layer 2"
     style="display:inline">
    <g
       id="g3362"
       transform="translate(2.1166616,3.1750002)">
      <path
         style="display:inline;mix-blend-mode:normal;fill:url(#linearGradient9873-0);fill-opacity:1;stroke:none;stroke-width:1.85208;stroke-miterlimit:10;stroke-dasharray:none;stroke-opacity:0.445783"
         d="m 33.418573,125.16186 c 0,0 9.17343,-21.37939 12.69404,-32.446738 2.25416,-7.08615 5.36878,-21.65246 5.36878,-21.65246 0,0 0.22227,-0.70514 1.12958,-1.00704 0.9073,-0.3019 1.84434,-0.54231 2.76082,-0.3883 1.05215,0.17681 2.27248,0.90717 2.84972,1.45728 0.57723,0.55011 0.46463,1.10132 0.46463,1.10132 0,0 -3.29427,15.11924 -5.69348,22.46094 -2.42527,7.421458 -8.76306,21.722078 -8.76306,21.722078 4.84905,-2.86715 8.05096,-5.23217 12.55159,-5.01732 4.27861,0.20426 7.14228,5.75507 11.4238,5.88482 3.61187,0.10946 9.91998,-4.37173 9.91998,-4.37173 -3.44373,4.10434 -6.99484,8.10694 -10.37346,12.26555 0,0 -8.72277,-5.33622 -13.63121,-5.64793 -7.13767,-0.45328 -14.87386,1.53194 -20.70173,5.63953 z m 39.18103,-51.624358 c -1.70737,-1.51635 -6.53819,-2.0449 -6.53819,-2.0449 3.36149,-0.99035 6.99294,-5.01846 10.44329,-3.7012 14.05655,5.36647 7.54997,34.404188 21.67223,39.595258 7.028587,2.58357 15.884657,-4.6782 20.981257,-8.029288 -5.56612,6.506958 -11.74547,16.568218 -20.538627,20.724268 -1.44698,0.68391 -3.27615,0.99268 -4.78059,0.44663 -1.10421,-0.40079 -1.86697,-1.50109 -2.48167,-2.50213 -1.87069,-3.0464 -2.07927,-6.84801 -3.37468,-10.17996 -4.54153,-11.681388 -6.01202,-25.986138 -15.38302,-34.308678 z m -53.50546,21.64906 c -4.90438,-1.79158 -6.91525,-8.78452 -7.01619,-14.00492 -0.10719,-5.54363 2.87944,-11.29959 6.87014,-15.14895 4.15196,-4.00492 10.29223,-5.79893 16.0085,-6.57504 7.59452,-1.03113 15.21426,3.62862 22.82774,2.74837 6.25231,-0.72287 12.50518,-2.97614 17.73692,-6.47512 5.1522,-3.44577 10.26058,-7.95374 12.56399,-13.70812 2.54353,-6.35425 3.68274,-14.521789 0.40311,-20.529293 -3.32133,-6.083886 -11.50133,-11.185568 -18.83116,-11.367647 -13.91867,-0.3457494 -25.96335,4.625362 -36.78629,19.78404 6.5718,-15.06572 22.26739,-26.0476284 39.59449,-25.9578494 8.34157,-0.147547 16.90778,2.605657 22.01305,8.6062894 5.01736,5.897292 6.733657,14.017428 4.88311,22.70952 -1.11298,5.22774 -4.14405,9.99825 -7.44685,14.20058 -3.0198,3.84227 -6.85182,7.11206 -11.00707,9.68425 -4.36131,2.69974 -9.34249,4.31504 -14.24972,5.80789 -2.14483,0.65248 -4.35333,1.16487 -6.58671,1.35998 -9.29438,0.81199 -19.27695,-4.18954 -27.97732,-0.82079 -5.25305,2.03397 -10.53983,6.34497 -12.15364,11.74194 -1.34044,4.48277 -0.85064,11.16164 3.08391,13.69371 3.31725,2.13482 11.58513,-2.41642 11.58513,-2.41642 -4.28366,4.41717 -10.22782,8.59904 -15.51514,6.66758 z m 36.71511,-37.60496 c -0.99149,-0.017 -2.9372,0.4721 -2.9372,0.4721 0,0 0.98969,-10.15518 1.133,-14.43691 0.24271,-8.2175 0.51536,-17.74746 -0.81287,-25.439296 l 2.60575,1.257871 c 0,0 1.94616,1.075922 2.23616,2.043015 3.26465,10.88701 1.16291,36.85727 1.16291,36.85727 0,0 -2.32846,-0.72803 -3.38775,-0.75405 z"
         id="path9406-6"
         sodipodi:nodetypes="cacsascacaaccacacaacaaaaaaaaaaaasaccasaaaaaaacacccccscc" />
      <path
         style="display:inline;mix-blend-mode:normal;fill:url(#linearGradient10375-3);fill-opacity:1;stroke:none;stroke-width:1.85208;stroke-miterlimit:10;stroke-dasharray:none;stroke-opacity:0.445783"
         d="m 33.418573,125.16186 c 0,0 9.17343,-21.37939 12.69404,-32.446738 2.25416,-7.08615 5.36878,-21.65246 5.36878,-21.65246 0,0 0.22227,-0.70514 1.12958,-1.00704 0.9073,-0.3019 1.84434,-0.54231 2.76082,-0.3883 1.05215,0.17681 2.27248,0.90717 2.84972,1.45728 0.57723,0.55011 0.46463,1.10132 0.46463,1.10132 0,0 -3.29427,15.11924 -5.69348,22.46094 -2.42527,7.421458 -8.76306,21.722078 -8.76306,21.722078 4.84905,-2.86715 8.05096,-5.23217 12.55159,-5.01732 4.27861,0.20426 7.14228,5.75507 11.4238,5.88482 3.61187,0.10946 9.91998,-4.37173 9.91998,-4.37173 -3.44373,4.10434 -6.99484,8.10694 -10.37346,12.26555 0,0 -8.72277,-5.33622 -13.63121,-5.64793 -7.13767,-0.45328 -14.87386,1.53194 -20.70173,5.63953 z m 39.18103,-51.624358 c -1.70737,-1.51635 -6.53819,-2.0449 -6.53819,-2.0449 3.36149,-0.99035 6.99294,-5.01846 10.44329,-3.7012 14.05655,5.36647 7.54997,34.404188 21.67223,39.595258 7.028587,2.58357 15.884657,-4.6782 20.981257,-8.029288 -5.56612,6.506958 -11.74547,16.568218 -20.538627,20.724268 -1.44698,0.68391 -3.27615,0.99268 -4.78059,0.44663 -1.10421,-0.40079 -1.86697,-1.50109 -2.48167,-2.50213 -1.87069,-3.0464 -2.07927,-6.84801 -3.37468,-10.17996 -4.54153,-11.681388 -6.01202,-25.986138 -15.38302,-34.308678 z m -53.50546,21.64906 c -4.90438,-1.79158 -6.91525,-8.78452 -7.01619,-14.00492 -0.10719,-5.54363 2.87944,-11.29959 6.87014,-15.14895 4.15196,-4.00492 10.29223,-5.79893 16.0085,-6.57504 7.59452,-1.03113 15.21426,3.62862 22.82774,2.74837 6.25231,-0.72287 12.50518,-2.97614 17.73692,-6.47512 5.1522,-3.44577 10.26058,-7.95374 12.56399,-13.70812 2.54353,-6.35425 3.68274,-14.521789 0.40311,-20.529293 -3.32133,-6.083886 -11.50133,-11.185568 -18.83116,-11.367647 -13.91867,-0.3457494 -25.96335,4.625362 -36.78629,19.78404 6.5718,-15.06572 22.26739,-26.0476284 39.59449,-25.9578494 8.34157,-0.147547 16.90778,2.605657 22.01305,8.6062894 5.01736,5.897292 6.733657,14.017428 4.88311,22.70952 -1.11298,5.22774 -4.14405,9.99825 -7.44685,14.20058 -3.0198,3.84227 -6.85182,7.11206 -11.00707,9.68425 -4.36131,2.69974 -9.34249,4.31504 -14.24972,5.80789 -2.14483,0.65248 -4.35333,1.16487 -6.58671,1.35998 -9.29438,0.81199 -19.27695,-4.18954 -27.97732,-0.82079 -5.25305,2.03397 -10.53983,6.34497 -12.15364,11.74194 -1.34044,4.48277 -0.85064,11.16164 3.08391,13.69371 3.31725,2.13482 11.58513,-2.41642 11.58513,-2.41642 -4.28366,4.41717 -10.22782,8.59904 -15.51514,6.66758 z m 36.71511,-37.60496 c -0.99149,-0.017 -2.9372,0.4721 -2.9372,0.4721 0,0 0.98969,-10.15518 1.133,-14.43691 0.24271,-8.2175 0.51536,-17.74746 -0.81287,-25.439296 l 2.60575,1.257871 c 0,0 1.94616,1.075922 2.23616,2.043015 3.26465,10.88701 1.16291,36.85727 1.16291,36.85727 0,0 -2.32846,-0.72803 -3.38775,-0.75405 z"
         id="path9408-2"
         sodipodi:nodetypes="cacsascacaaccacacaacaaaaaaaaaaaasaccasaaaaaaacacccccscc" />
      <path
         style="display:inline;mix-blend-mode:normal;fill:url(#linearGradient10921);fill-opacity:1;stroke:none;stroke-width:1.85208;stroke-miterlimit:10;stroke-dasharray:none;stroke-opacity:0.445783"
         d="m 33.418573,125.16186 c 0,0 9.17343,-21.37939 12.69404,-32.446738 2.25416,-7.08615 5.36878,-21.65246 5.36878,-21.65246 0,0 0.22227,-0.70514 1.12958,-1.00704 0.9073,-0.3019 1.84434,-0.54231 2.76082,-0.3883 1.05215,0.17681 2.27248,0.90717 2.84972,1.45728 0.57723,0.55011 0.46463,1.10132 0.46463,1.10132 0,0 -3.29427,15.11924 -5.69348,22.46094 -2.42527,7.421458 -8.76306,21.722078 -8.76306,21.722078 4.84905,-2.86715 8.05096,-5.23217 12.55159,-5.01732 4.27861,0.20426 7.14228,5.75507 11.4238,5.88482 3.61187,0.10946 9.91998,-4.37173 9.91998,-4.37173 -3.44373,4.10434 -6.99484,8.10694 -10.37346,12.26555 0,0 -8.72277,-5.33622 -13.63121,-5.64793 -7.13767,-0.45328 -14.87386,1.53194 -20.70173,5.63953 z m 39.18103,-51.624358 c -1.70737,-1.51635 -6.53819,-2.0449 -6.53819,-2.0449 3.36149,-0.99035 6.99294,-5.01846 10.44329,-3.7012 14.05655,5.36647 7.54997,34.404188 21.67223,39.595258 7.028587,2.58357 15.884657,-4.6782 20.981257,-8.029288 -5.56612,6.506958 -11.74547,16.568218 -20.538627,20.724268 -1.44698,0.68391 -3.27615,0.99268 -4.78059,0.44663 -1.10421,-0.40079 -1.86697,-1.50109 -2.48167,-2.50213 -1.87069,-3.0464 -2.07927,-6.84801 -3.37468,-10.17996 -4.54153,-11.681388 -6.01202,-25.986138 -15.38302,-34.308678 z m -53.50546,21.64906 c -4.90438,-1.79158 -6.91525,-8.78452 -7.01619,-14.00492 -0.10719,-5.54363 2.87944,-11.29959 6.87014,-15.14895 4.15196,-4.00492 10.29223,-5.79893 16.0085,-6.57504 7.59452,-1.03113 15.21426,3.62862 22.82774,2.74837 6.25231,-0.72287 12.50518,-2.97614 17.73692,-6.47512 5.1522,-3.44577 10.26058,-7.95374 12.56399,-13.70812 2.54353,-6.35425 3.68274,-14.521789 0.40311,-20.529293 -3.32133,-6.083886 -11.50133,-11.185568 -18.83116,-11.367647 -13.91867,-0.3457494 -25.96335,4.625362 -36.78629,19.78404 6.5718,-15.06572 22.26739,-26.0476284 39.59449,-25.9578494 8.34157,-0.147547 16.90778,2.605657 22.01305,8.6062894 5.01736,5.897292 6.733657,14.017428 4.88311,22.70952 -1.11298,5.22774 -4.14405,9.99825 -7.44685,14.20058 -3.0198,3.84227 -6.85182,7.11206 -11.00707,9.68425 -4.36131,2.69974 -9.34249,4.31504 -14.24972,5.80789 -2.14483,0.65248 -4.35333,1.16487 -6.58671,1.35998 -9.29438,0.81199 -19.27695,-4.18954 -27.97732,-0.82079 -5.25305,2.03397 -10.53983,6.34497 -12.15364,11.74194 -1.34044,4.48277 -0.85064,11.16164 3.08391,13.69371 3.31725,2.13482 11.58513,-2.41642 11.58513,-2.41642 -4.28366,4.41717 -10.22782,8.59904 -15.51514,6.66758 z m 36.71511,-37.60496 c -0.99149,-0.017 -2.9372,0.4721 -2.9372,0.4721 0,0 0.98969,-10.15518 1.133,-14.43691 0.24271,-8.2175 0.51536,-17.74746 -0.81287,-25.439296 l 2.60575,1.257871 c 0,0 1.94616,1.075922 2.23616,2.043015 3.26465,10.88701 1.16291,36.85727 1.16291,36.85727 0,0 -2.32846,-0.72803 -3.38775,-0.75405 z"
         id="path9403"
         sodipodi:nodetypes="cacsascacaaccacacaacaaaaaaaaaaaasaccasaaaaaaacacccccscc" />
      <path
         style="display:inline;mix-blend-mode:normal;fill:url(#linearGradient2034);fill-opacity:1;stroke:none;stroke-width:1.85208;stroke-miterlimit:10;stroke-dasharray:none;stroke-opacity:0.445783"
         d="m 33.418573,125.16186 c 0,0 9.17343,-21.37939 12.69404,-32.446738 2.25416,-7.08615 5.36878,-21.65246 5.36878,-21.65246 0,0 0.22227,-0.70514 1.12958,-1.00704 0.9073,-0.3019 1.84434,-0.54231 2.76082,-0.3883 1.05215,0.17681 2.27248,0.90717 2.84972,1.45728 0.57723,0.55011 0.46463,1.10132 0.46463,1.10132 0,0 -3.29427,15.11924 -5.69348,22.46094 -2.42527,7.421458 -8.76306,21.722078 -8.76306,21.722078 4.84905,-2.86715 8.05096,-5.23217 12.55159,-5.01732 4.27861,0.20426 7.14228,5.75507 11.4238,5.88482 3.61187,0.10946 9.91998,-4.37173 9.91998,-4.37173 -3.44373,4.10434 -6.99484,8.10694 -10.37346,12.26555 0,0 -8.72277,-5.33622 -13.63121,-5.64793 -7.13767,-0.45328 -14.87386,1.53194 -20.70173,5.63953 z m 39.18103,-51.624358 c -1.70737,-1.51635 -6.53819,-2.0449 -6.53819,-2.0449 3.36149,-0.99035 6.99294,-5.01846 10.44329,-3.7012 14.05655,5.36647 7.54997,34.404188 21.67223,39.595258 7.028587,2.58357 15.884657,-4.6782 20.981257,-8.029288 -5.56612,6.506958 -11.74547,16.568218 -20.538627,20.724268 -1.44698,0.68391 -3.27615,0.99268 -4.78059,0.44663 -1.10421,-0.40079 -1.86697,-1.50109 -2.48167,-2.50213 -1.87069,-3.0464 -2.07927,-6.84801 -3.37468,-10.17996 -4.54153,-11.681388 -6.01202,-25.986138 -15.38302,-34.308678 z m -53.50546,21.64906 c -4.90438,-1.79158 -6.91525,-8.78452 -7.01619,-14.00492 -0.10719,-5.54363 2.87944,-11.29959 6.87014,-15.14895 4.15196,-4.00492 10.29223,-5.79893 16.0085,-6.57504 7.59452,-1.03113 15.21426,3.62862 22.82774,2.74837 6.25231,-0.72287 12.50518,-2.97614 17.73692,-6.47512 5.1522,-3.44577 10.26058,-7.95374 12.56399,-13.70812 2.54353,-6.35425 3.68274,-14.521789 0.40311,-20.529293 -3.32133,-6.083886 -11.50133,-11.185568 -18.83116,-11.367647 -13.91867,-0.3457494 -25.96335,4.625362 -36.78629,19.78404 6.5718,-15.06572 22.26739,-26.0476284 39.59449,-25.9578494 8.34157,-0.147547 16.90778,2.605657 22.01305,8.6062894 5.01736,5.897292 6.733657,14.017428 4.88311,22.70952 -1.11298,5.22774 -4.14405,9.99825 -7.44685,14.20058 -3.0198,3.84227 -6.85182,7.11206 -11.00707,9.68425 -4.36131,2.69974 -9.34249,4.31504 -14.24972,5.80789 -2.14483,0.65248 -4.35333,1.16487 -6.58671,1.35998 -9.29438,0.81199 -19.27695,-4.18954 -27.97732,-0.82079 -5.25305,2.03397 -10.53983,6.34497 -12.15364,11.74194 -1.34044,4.48277 -0.85064,11.16164 3.08391,13.69371 3.31725,2.13482 11.58513,-2.41642 11.58513,-2.41642 -4.28366,4.41717 -10.22782,8.59904 -15.51514,6.66758 z m 36.71511,-37.60496 c -0.99149,-0.017 -2.9372,0.4721 -2.9372,0.4721 0,0 0.98969,-10.15518 1.133,-14.43691 0.24271,-8.2175 0.51536,-17.74746 -0.81287,-25.439296 l 2.60575,1.257871 c 0,0 1.94616,1.075922 2.23616,2.043015 3.26465,10.88701 1.16291,36.85727 1.16291,36.85727 0,0 -2.32846,-0.72803 -3.38775,-0.75405 z"
         id="path2030"
         sodipodi:nodetypes="cacsascacaaccacacaacaaaaaaaaaaaasaccasaaaaaaacacccccscc" />
    </g>
  </g>
</svg>
