<?xml version="1.0" encoding="UTF-8" standalone="no"?>
<!-- Created with Inkscape (http://www.inkscape.org/) -->

<svg
   width="512"
   height="300"
   viewBox="0 0 135.46667 79.375008"
   version="1.1"
   id="svg5"
   sodipodi:docname="ONE.svg"
   inkscape:version="1.1 (c68e22c387, 2021-05-23)"
   xmlns:inkscape="http://www.inkscape.org/namespaces/inkscape"
   xmlns:sodipodi="http://sodipodi.sourceforge.net/DTD/sodipodi-0.dtd"
   xmlns="http://www.w3.org/2000/svg"
   xmlns:svg="http://www.w3.org/2000/svg">
  <sodipodi:namedview
     id="namedview7"
     pagecolor="#505050"
     bordercolor="#eeeeee"
     borderopacity="1"
     inkscape:pageshadow="0"
     inkscape:pageopacity="0"
     inkscape:pagecheckerboard="0"
     inkscape:document-units="px"
     showgrid="false"
     inkscape:zoom="0.5078125"
     inkscape:cx="255.01538"
     inkscape:cy="148.67692"
     inkscape:window-width="1366"
     inkscape:window-height="705"
     inkscape:window-x="-8"
     inkscape:window-y="-8"
     inkscape:window-maximized="1"
     inkscape:current-layer="layer3"
     units="mm" />
  <defs
     id="defs2" />
  <g
     inkscape:groupmode="layer"
     id="layer3"
     inkscape:label="Capa 2"
     style="display:inline">
    <path
       id="path1614"
       style="fill:#000000;fill-opacity:1;stroke-width:0.437192"
       d="m 23.931552,6.2200029 -0.515731,3.388424 c -0.716002,4.7040401 -0.650834,6.6593691 0.255281,7.6718821 0.722983,0.807876 1.174171,0.838888 8.197434,0.564825 9.993003,-0.389951 10.184966,-0.431604 10.529589,-2.268596 0.434192,-2.314445 0.02357,-7.8379301 -0.642337,-8.6403001 -0.514083,-0.619426 -1.761003,-0.716235 -9.209257,-0.716235 z m 44.409176,1.978689 c -4.319813,0.01463 -6.998261,1.292778 -9.032524,4.3103331 -1.940541,2.878529 -2.423086,5.026049 -2.222087,9.887252 0.148204,3.584318 0.347879,4.474718 1.456243,6.500894 1.517716,2.774506 3.444904,4.363694 6.255949,5.157825 2.724719,0.769744 7.117786,0.413398 9.575125,-0.776179 3.976862,-1.925167 6.032373,-6.615488 5.7242,-13.06122 C 79.711419,12.139603 75.831384,8.1733429 68.340728,8.1986919 Z m 16.209349,0.207225 V 21.30332 34.200207 h 2.177126 2.17713 l 0.118337,-9.022704 0.11834,-9.022189 6.028056,9.045959 6.028054,9.045443 2.05982,-0.132292 2.05982,-0.132807 V 21.30332 8.6245079 h -2.18591 -2.18591 l -0.2186,8.8113471 -0.21859,8.81135 -5.901959,-8.910569 -5.901965,-8.9100501 -2.076876,-0.01035 z m 26.012873,0.218591 -0.11627,12.2354291 c -0.064,6.729526 -0.021,12.484034 0.0956,12.787849 0.16024,0.417563 2.18941,0.552421 8.3137,0.552421 h 8.10183 v -1.967322 -1.96732 h -5.90196 -5.90197 v -3.716052 -3.716055 h 5.2462 5.24619 v -1.748729 -1.748732 h -5.24619 -5.2462 V 15.83802 12.340559 h 5.92729 5.92729 l -0.13488,-1.857766 -0.13436,-1.8582851 h -8.08788 z M 68.150558,12.004147 c 1.679292,-0.01826 3.488899,0.423124 4.598686,1.213361 3.799433,2.70543 3.785008,13.47651 -0.0217,16.187126 -1.467577,1.045009 -4.831826,1.456373 -6.851261,0.837676 -3.267472,-1.001061 -5.167217,-6.384094 -4.161504,-11.792045 0.605438,-3.25559 2.114314,-5.40285 4.304649,-6.125726 0.631582,-0.208442 1.367822,-0.312092 2.131134,-0.320392 z m -27.594182,8.273397 c -2.346058,0.0052 -6.220264,0.107243 -10.523387,0.289904 -11.613969,0.492998 -12.64699,0.602498 -14.301454,1.515152 -2.305281,1.271667 -2.797758,2.393021 -2.923336,6.652824 l -0.103353,3.497461 5.42861,0.512114 c 2.985633,0.281644 9.098365,0.464587 13.583667,0.406178 9.333558,-0.121552 9.861944,-0.288118 11.085629,-3.492294 0.545333,-1.42794 0.703961,-2.89696 0.588079,-5.448763 -0.08726,-1.921394 -0.311976,-3.646138 -0.499195,-3.833358 -0.07021,-0.07021 -0.927624,-0.102314 -2.33526,-0.09922 z M 18.761324,35.677638 c -7.985227,-0.02064 -14.8084873,0.279657 -15.3964769,0.867646 -0.3523907,0.35239 -1.8749434,10.048258 -1.6185059,10.306865 0.1338455,0.134977 2.14602,0.364524 4.4715617,0.510045 7.3236091,0.458277 28.9776441,0.164994 30.7526461,-0.41651 3.289835,-1.077777 3.641638,-1.682845 3.641638,-6.257499 V 36.604712 L 37.114726,36.324108 C 31.885636,35.904082 24.972057,35.69369 18.761324,35.677638 Z m 71.296941,8.962761 c -0.189468,0 -0.345286,0.0079 -0.468188,0.02429 -0.122899,0.01638 -0.222909,0.04116 -0.299723,0.0739 -0.07169,0.02728 -0.122753,0.0628 -0.153479,0.106452 -0.03072,0.04365 -0.04651,0.09271 -0.04651,0.147278 v 10.762652 c 0,0.05456 0.0158,0.103627 0.04651,0.147278 0.03073,0.0382 0.08179,0.0709 0.153479,0.09818 0.07681,0.02728 0.176824,0.04645 0.299723,0.05736 0.122902,0.01638 0.27872,0.02482 0.468188,0.02482 0.189471,0 0.345808,-0.0084 0.468707,-0.02482 0.122899,-0.01093 0.220279,-0.03008 0.29197,-0.05736 0.07681,-0.02728 0.130506,-0.05999 0.161232,-0.09818 0.03073,-0.04365 0.04599,-0.09272 0.04599,-0.147278 V 44.992316 c 0,-0.05456 -0.01527,-0.103627 -0.04599,-0.147278 -0.03073,-0.04365 -0.08442,-0.07917 -0.161232,-0.106452 -0.07169,-0.03274 -0.169071,-0.05753 -0.29197,-0.0739 -0.122899,-0.01638 -0.279236,-0.02429 -0.468707,-0.02429 z M 63.30486,45.254314 c -0.788607,0 -1.482908,0.128021 -2.082043,0.384471 -0.594016,0.25645 -1.093039,0.624682 -1.497584,1.104842 -0.404546,0.480161 -0.709322,1.064329 -0.914157,1.751833 -0.204832,0.682046 -0.306956,1.451218 -0.306956,2.307868 0,0.93304 0.09475,1.740546 0.28422,2.422591 0.194591,0.682048 0.483585,1.244238 0.867646,1.686203 0.384064,0.441965 0.863073,0.771866 1.436605,0.990121 0.578655,0.212799 1.254538,0.31936 2.027783,0.31936 0.783487,0 1.472009,-0.125727 2.066025,-0.376722 0.599136,-0.25645 1.101305,-0.624681 1.50585,-1.104841 0.404545,-0.485617 0.709324,-1.074891 0.914157,-1.767851 0.204832,-0.69296 0.306959,-1.478486 0.306959,-2.356961 0,-0.916673 -0.100013,-1.710635 -0.299723,-2.381769 -0.194593,-0.67659 -0.486217,-1.235967 -0.8754,-1.677932 -0.384062,-0.441968 -0.865704,-0.769054 -1.444356,-0.981853 -0.573532,-0.212799 -1.236265,-0.31936 -1.989026,-0.31936 z m 48.5531,0.155546 c -0.18435,0 -0.33542,0.0079 -0.4532,0.02429 -0.11778,0.0109 -0.21253,0.03289 -0.28422,0.06563 -0.0717,0.03274 -0.12327,0.07107 -0.154,0.114723 -0.0307,0.04365 -0.046,0.09271 -0.046,0.147278 v 4.968171 c 0,0.376489 0.003,0.771806 0.008,1.186493 0.0102,0.414684 0.0229,0.81281 0.0382,1.194757 h -0.007 c -0.0922,-0.218254 -0.18693,-0.436485 -0.28422,-0.65474 -0.0973,-0.218255 -0.19731,-0.439298 -0.29972,-0.663009 -0.10242,-0.229166 -0.20981,-0.455316 -0.32246,-0.679029 -0.10754,-0.229167 -0.21808,-0.460939 -0.33073,-0.695563 l -1.93529,-3.871598 c -0.0973,-0.212799 -0.19204,-0.389885 -0.28422,-0.531752 -0.0922,-0.147323 -0.19218,-0.261802 -0.29972,-0.343649 -0.10242,-0.08185 -0.22033,-0.139342 -0.35347,-0.172082 -0.13314,-0.0382 -0.29685,-0.05736 -0.49144,-0.05736 h -1.08314 c -0.20483,0 -0.37907,0.06542 -0.52245,0.196371 -0.13826,0.125498 -0.20722,0.316643 -0.20722,0.573093 v 9.518799 c 0,0.05456 0.0126,0.103626 0.0382,0.147277 0.0256,0.04365 0.0719,0.08147 0.13849,0.114205 0.0666,0.02728 0.15869,0.04926 0.27647,0.06563 0.11778,0.01638 0.26622,0.02482 0.44545,0.02482 0.18435,0 0.33543,-0.0084 0.45321,-0.02482 0.11777,-0.01638 0.20989,-0.03835 0.27647,-0.06563 0.0717,-0.03274 0.12063,-0.07055 0.14624,-0.114205 0.0307,-0.04365 0.046,-0.09271 0.046,-0.147277 v -5.541264 c 0,-0.414685 -0.005,-0.815626 -0.0155,-1.203027 -0.0102,-0.392858 -0.0255,-0.785881 -0.046,-1.178739 h 0.0155 c 0.11778,0.321926 0.25095,0.655153 0.39946,0.998905 0.1485,0.338293 0.29431,0.65465 0.4377,0.949296 l 2.47323,4.951635 c 0.12802,0.272819 0.2433,0.496673 0.34572,0.671277 0.10241,0.169148 0.20717,0.305091 0.31471,0.40876 0.11265,0.09822 0.23319,0.166444 0.36121,0.204639 0.13315,0.0382 0.28948,0.05736 0.46871,0.05736 h 0.85989 c 0.0973,0 0.19205,-0.01355 0.28423,-0.04082 0.0973,-0.03274 0.1794,-0.0818 0.24598,-0.147278 0.0717,-0.06548 0.12801,-0.147249 0.16898,-0.245462 0.041,-0.09822 0.0615,-0.210402 0.0615,-0.335897 v -9.518282 c 0,-0.05456 -0.0126,-0.103627 -0.0382,-0.147278 -0.0256,-0.04365 -0.0719,-0.08198 -0.13849,-0.114723 -0.0615,-0.03274 -0.15094,-0.05472 -0.26872,-0.06563 -0.11778,-0.01638 -0.26359,-0.02429 -0.4377,-0.02429 z m 19.12597,0.79375 c -0.18435,0 -0.34017,0.0084 -0.46819,0.02482 -0.1229,0.0109 -0.22291,0.03237 -0.29972,0.06511 -0.0717,0.02728 -0.12276,0.0628 -0.15348,0.106455 -0.0256,0.04365 -0.0388,0.09271 -0.0388,0.147278 v 1.628841 h -0.81391 c -0.0512,0 -0.0975,0.01355 -0.13849,0.04082 -0.0358,0.02728 -0.0664,0.07353 -0.092,0.139009 -0.0256,0.06002 -0.0461,0.144606 -0.0615,0.253733 -0.0102,0.109127 -0.0155,0.24329 -0.0155,0.401526 0,0.300099 0.0258,0.51552 0.077,0.646473 0.0512,0.125494 0.12543,0.1881 0.22272,0.1881 h 0.82166 v 3.740341 c 0,0.447423 0.0437,0.834821 0.13074,1.162203 0.087,0.327382 0.22286,0.6003 0.40721,0.818555 0.18435,0.212799 0.41702,0.370718 0.69866,0.47439 0.28165,0.103671 0.61485,0.155546 0.99891,0.155546 0.14338,0 0.28393,-0.0079 0.4222,-0.02429 0.14338,-0.01638 0.27393,-0.04116 0.39171,-0.0739 0.12289,-0.02728 0.22817,-0.05999 0.31522,-0.09819 0.0922,-0.04365 0.16114,-0.0899 0.20722,-0.13901 0.0461,-0.05456 0.0819,-0.144772 0.10749,-0.270266 0.0307,-0.130953 0.046,-0.316477 0.046,-0.556557 0,-0.152778 -0.007,-0.27799 -0.0227,-0.376203 -0.0102,-0.09822 -0.0234,-0.174882 -0.0387,-0.229444 -0.0154,-0.06002 -0.038,-0.09784 -0.0687,-0.114205 -0.0256,-0.02183 -0.054,-0.03307 -0.0847,-0.03307 -0.0359,0 -0.0769,0.01125 -0.12299,0.03307 -0.041,0.01638 -0.0947,0.03783 -0.16123,0.06511 -0.0615,0.02183 -0.13305,0.0438 -0.21498,0.06563 -0.0819,0.01638 -0.17405,0.02482 -0.27647,0.02482 -0.30213,0 -0.51215,-0.09864 -0.62993,-0.295074 -0.11778,-0.201885 -0.17673,-0.501888 -0.17674,-0.900202 v -3.429275 h 1.4981 c 0.0973,0 0.17152,-0.06261 0.22273,-0.1881 0.0512,-0.130953 0.0765,-0.346374 0.0765,-0.646473 0,-0.158237 -0.007,-0.292399 -0.0227,-0.401526 -0.0102,-0.109128 -0.0281,-0.193712 -0.0537,-0.253733 -0.0256,-0.06548 -0.0593,-0.111726 -0.10026,-0.139009 -0.0358,-0.02728 -0.079,-0.04082 -0.13022,-0.04082 h -1.49035 v -1.628834 c 0,-0.05457 -0.0153,-0.103627 -0.046,-0.147278 -0.0307,-0.04365 -0.0818,-0.07917 -0.15348,-0.106455 -0.0717,-0.03274 -0.1717,-0.0542 -0.29972,-0.06511 -0.1229,-0.01638 -0.27924,-0.02482 -0.46871,-0.02482 z m -67.748317,0.818555 c 0.491599,0 0.901134,0.09021 1.228865,0.270266 0.327735,0.174604 0.588825,0.425543 0.783416,0.752928 0.199713,0.321924 0.340781,0.711618 0.422714,1.169953 0.08193,0.452879 0.122989,0.958085 0.122989,1.514636 0,0.507442 -0.04369,0.987343 -0.130741,1.440223 -0.08193,0.447423 -0.225116,0.840443 -0.429948,1.17874 -0.204833,0.338293 -0.473816,0.605589 -0.80667,0.802018 -0.332854,0.196429 -0.747649,0.294555 -1.244367,0.294555 -0.496721,0 -0.908886,-0.08458 -1.236617,-0.253733 -0.327735,-0.174603 -0.588825,-0.425542 -0.783416,-0.752924 -0.19459,-0.327383 -0.333028,-0.720405 -0.414962,-1.17874 -0.08193,-0.463791 -0.122989,-0.984835 -0.122989,-1.563212 0,-0.49653 0.04106,-0.9657 0.122989,-1.407665 0.08705,-0.447424 0.232868,-0.837634 0.4377,-1.170472 0.204833,-0.332838 0.473816,-0.59732 0.80667,-0.79375 0.332854,-0.201885 0.747646,-0.302823 1.244367,-0.302823 z m 9.732222,0.965832 c -0.143383,0 -0.287081,0.02146 -0.430464,0.06511 -0.143383,0.0382 -0.286565,0.109236 -0.429948,0.212908 -0.143383,0.103672 -0.294457,0.245753 -0.453202,0.425815 -0.158745,0.174604 -0.327715,0.398457 -0.506947,0.671275 v -0.908471 c 0,-0.05456 -0.01265,-0.101333 -0.03824,-0.139526 -0.02561,-0.04365 -0.06929,-0.07917 -0.130741,-0.106455 -0.05633,-0.02728 -0.138441,-0.04593 -0.245978,-0.05684 -0.107537,-0.01638 -0.243345,-0.02482 -0.407212,-0.02482 -0.158745,0 -0.291404,0.0084 -0.398942,0.02482 -0.102417,0.0109 -0.187161,0.02956 -0.25373,0.05684 -0.06657,0.02728 -0.11289,0.0628 -0.138493,0.106455 -0.02561,0.03819 -0.03824,0.08496 -0.03824,0.139526 v 7.30033 c 0,0.05456 0.01527,0.103627 0.04599,0.147278 0.03072,0.0382 0.0823,0.0709 0.153995,0.09818 0.07681,0.02728 0.176305,0.04645 0.299207,0.05736 0.122899,0.01638 0.279233,0.02482 0.468704,0.02482 0.189471,0 0.345805,-0.0084 0.468704,-0.02482 0.122902,-0.01093 0.220282,-0.03008 0.291973,-0.05736 0.07681,-0.02728 0.130506,-0.05999 0.161232,-0.09818 0.03072,-0.04365 0.04599,-0.09271 0.04599,-0.147278 v -4.550627 c 0.143383,-0.24008 0.276561,-0.441957 0.39946,-0.605647 0.128021,-0.163692 0.248044,-0.294526 0.360701,-0.392742 0.117779,-0.09821 0.230426,-0.169257 0.337963,-0.212908 0.107537,-0.04911 0.215442,-0.07338 0.32298,-0.07338 0.09217,0 0.1764,0.01074 0.253214,0.03256 0.07681,0.01638 0.146288,0.03553 0.207737,0.05736 0.06657,0.02183 0.125011,0.04329 0.176218,0.06511 0.05121,0.01638 0.09753,0.02482 0.138494,0.02482 0.05121,0 0.09226,-0.01355 0.122989,-0.04082 0.03584,-0.02728 0.06375,-0.07635 0.08423,-0.147278 0.02048,-0.07093 0.03627,-0.169058 0.04651,-0.294555 0.01024,-0.125498 0.01497,-0.286745 0.01497,-0.483175 0,-0.196429 -0.0026,-0.352054 -0.0078,-0.46664 -0.0051,-0.114583 -0.01249,-0.199165 -0.02273,-0.25373 -0.01024,-0.06002 -0.02339,-0.10627 -0.03876,-0.13901 -0.01024,-0.03274 -0.03025,-0.06263 -0.06098,-0.08992 -0.02561,-0.02728 -0.06929,-0.05207 -0.130741,-0.0739 -0.06145,-0.02728 -0.133043,-0.04874 -0.214974,-0.06511 -0.08193,-0.02183 -0.161417,-0.03588 -0.238231,-0.04134 -0.07681,-0.0109 -0.148402,-0.01601 -0.214974,-0.01601 z m 4.585769,0 c -0.30213,0 -0.596902,0.02709 -0.883668,0.08165 -0.281644,0.04911 -0.542735,0.114525 -0.783416,0.196371 -0.240678,0.08185 -0.450704,0.172053 -0.629933,0.270267 -0.179232,0.09276 -0.304514,0.180154 -0.376206,0.262001 -0.07169,0.07639 -0.120639,0.163785 -0.146243,0.261998 -0.02561,0.09822 -0.03824,0.231862 -0.03824,0.40101 0,0.125498 0.0079,0.239977 0.02326,0.343649 0.01537,0.103669 0.03589,0.191066 0.0615,0.261999 0.03072,0.07093 0.06652,0.125102 0.107487,0.163298 0.04609,0.03819 0.09715,0.05736 0.15348,0.05736 0.08193,0 0.186687,-0.03782 0.314708,-0.114205 0.133141,-0.07639 0.297368,-0.160973 0.491959,-0.25373 0.194593,-0.09276 0.417255,-0.177342 0.668176,-0.25373 0.256042,-0.07639 0.545552,-0.114724 0.868164,-0.114724 0.2458,0 0.450567,0.02709 0.614434,0.08165 0.168986,0.05456 0.302162,0.139147 0.39946,0.25373 0.102415,0.114583 0.174006,0.259477 0.214974,0.434081 0.04609,0.169148 0.06924,0.368212 0.06924,0.597381 v 0.441833 h -0.668692 c -0.609378,0 -1.144196,0.04906 -1.605071,0.147278 -0.460873,0.09822 -0.847765,0.251029 -1.160135,0.458369 -0.30725,0.201885 -0.539919,0.461262 -0.698666,0.777733 -0.153626,0.311012 -0.230476,0.679243 -0.230476,1.104841 0,0.392859 0.06158,0.736301 0.184483,1.030944 0.122902,0.294645 0.293986,0.543288 0.514181,0.745175 0.225316,0.19643 0.48904,0.343617 0.791167,0.441833 0.30725,0.103672 0.643078,0.155546 1.006658,0.155546 0.440391,0 0.839401,-0.09021 1.197859,-0.270266 0.36358,-0.180063 0.686255,-0.431001 0.967898,-0.752928 v 0.581361 c 0,0.07639 0.02053,0.136181 0.0615,0.179832 0.04609,0.04365 0.120308,0.07355 0.222723,0.08992 0.107537,0.02183 0.276508,0.03307 0.506947,0.03307 0.215075,0 0.376672,-0.01125 0.484209,-0.03307 0.112657,-0.01638 0.194254,-0.04627 0.245462,-0.08992 0.05121,-0.04365 0.077,-0.103444 0.077,-0.179832 V 50.86896 c 0,-0.501986 -0.05633,-0.936152 -0.168984,-1.301729 -0.112657,-0.365578 -0.291635,-0.662768 -0.537435,-0.891934 -0.245798,-0.234625 -0.561099,-0.406604 -0.945161,-0.515731 -0.378941,-0.114586 -0.836906,-0.171567 -1.374592,-0.171567 z m 18.496029,0 c -0.542808,0 -1.031824,0.09531 -1.467096,0.286287 -0.430149,0.190974 -0.795993,0.469514 -1.098124,0.835091 -0.302128,0.360122 -0.532683,0.801688 -0.69143,1.325502 -0.158745,0.518353 -0.238228,1.102521 -0.238228,1.75183 0,0.682046 0.07422,1.276427 0.222726,1.783871 0.153625,0.507442 0.38418,0.92755 0.69143,1.260388 0.30725,0.332838 0.68888,0.581483 1.144633,0.745173 0.460875,0.163692 0.995693,0.245464 1.605071,0.245464 0.337973,0 0.655904,-0.02479 0.952913,-0.0739 0.297008,-0.04365 0.560728,-0.09553 0.791165,-0.155546 0.230438,-0.06548 0.41942,-0.130895 0.567925,-0.196371 0.148503,-0.06548 0.238509,-0.117351 0.269235,-0.155546 0.03585,-0.03819 0.06375,-0.07601 0.08423,-0.114205 0.02048,-0.04365 0.03575,-0.09553 0.04599,-0.155546 0.01024,-0.06002 0.01812,-0.131061 0.02326,-0.212905 0.0051,-0.0873 0.0078,-0.191052 0.0078,-0.311094 0,-0.136409 -0.0053,-0.248076 -0.01551,-0.335378 -0.0051,-0.09276 -0.01775,-0.163801 -0.03824,-0.212907 -0.02048,-0.04911 -0.04627,-0.08182 -0.077,-0.09819 -0.03072,-0.02183 -0.06915,-0.03256 -0.11524,-0.03256 -0.07681,0 -0.176821,0.02709 -0.299722,0.08165 -0.122899,0.04911 -0.278718,0.10609 -0.468188,0.171567 -0.184349,0.06002 -0.4049,0.117517 -0.660943,0.172082 -0.25604,0.04911 -0.552926,0.0739 -0.8909,0.0739 -0.332853,0 -0.619733,-0.04677 -0.860414,-0.139528 -0.235556,-0.09276 -0.429802,-0.226404 -0.583425,-0.401008 -0.148505,-0.180062 -0.258521,-0.39548 -0.330213,-0.646472 -0.06657,-0.25645 -0.100253,-0.540099 -0.100253,-0.851112 h 4.171323 c 0.184348,0 0.32753,-0.05979 0.429948,-0.179834 0.107537,-0.120039 0.161229,-0.305562 0.161229,-0.556554 v -0.327628 c 0,-0.512901 -0.06158,-0.987693 -0.184484,-1.424205 -0.122901,-0.43651 -0.314515,-0.81266 -0.575675,-1.129128 -0.261162,-0.321926 -0.596992,-0.573384 -1.006657,-0.753443 -0.404546,-0.18006 -0.893562,-0.269751 -1.467094,-0.269751 z m 21.837937,0 c -0.54281,0 -1.03183,0.09531 -1.4671,0.286287 -0.43015,0.190974 -0.79651,0.469514 -1.09864,0.835091 -0.30212,0.360122 -0.53217,0.801688 -0.69091,1.325502 -0.15875,0.518353 -0.23823,1.102521 -0.23823,1.75183 0,0.682046 0.0742,1.276427 0.22273,1.783871 0.15362,0.507442 0.38418,0.92755 0.69143,1.260388 0.30725,0.332838 0.68836,0.581483 1.14411,0.745173 0.46088,0.163692 0.99621,0.245464 1.60559,0.245464 0.33797,0 0.65539,-0.02479 0.9524,-0.0739 0.29701,-0.04365 0.56073,-0.09553 0.79116,-0.155546 0.23044,-0.06548 0.41994,-0.130895 0.56844,-0.196371 0.14851,-0.06548 0.238,-0.117351 0.26872,-0.155546 0.0358,-0.03819 0.0643,-0.07601 0.0847,-0.114205 0.0205,-0.04365 0.0358,-0.09553 0.046,-0.155546 0.0102,-0.06002 0.0181,-0.131061 0.0233,-0.212905 0.005,-0.0873 0.007,-0.191052 0.007,-0.311094 0,-0.136409 -0.005,-0.248076 -0.015,-0.335378 -0.005,-0.09276 -0.0183,-0.163801 -0.0388,-0.212907 -0.0205,-0.04911 -0.0457,-0.08182 -0.0765,-0.09819 -0.0307,-0.02183 -0.0691,-0.03256 -0.11524,-0.03256 -0.0768,0 -0.17682,0.02709 -0.29972,0.08165 -0.1229,0.04911 -0.27923,0.10609 -0.4687,0.171567 -0.18435,0.06002 -0.40439,0.117517 -0.66043,0.172082 -0.25604,0.04911 -0.55293,0.0739 -0.8909,0.0739 -0.33285,0 -0.61974,-0.04677 -0.86041,-0.139528 -0.23556,-0.09276 -0.43032,-0.226404 -0.58395,-0.401008 -0.1485,-0.180062 -0.25852,-0.39548 -0.33021,-0.646472 -0.0666,-0.25645 -0.0997,-0.540099 -0.0997,-0.851112 h 4.1708 c 0.18435,0 0.32805,-0.05979 0.43047,-0.179834 0.10753,-0.120039 0.16123,-0.305562 0.16123,-0.556554 v -0.327628 c 0,-0.512901 -0.0616,-0.987693 -0.18449,-1.424205 -0.1229,-0.43651 -0.31503,-0.81266 -0.57619,-1.129128 -0.26116,-0.321926 -0.59648,-0.573384 -1.00614,-0.753443 -0.40455,-0.18006 -0.89356,-0.269751 -1.46709,-0.269751 z m -32.345824,0.0083 c -0.501841,0 -0.962435,0.08458 -1.382345,0.25373 -0.419907,0.169148 -0.78364,0.428006 -1.090888,0.777214 -0.30725,0.349207 -0.547812,0.791294 -0.721921,1.326017 -0.168986,0.52927 -0.25373,1.159688 -0.25373,1.890843 0,0.632939 0.06948,1.194609 0.207738,1.685684 0.143383,0.491074 0.352896,0.908367 0.62942,1.252119 0.276524,0.338297 0.617098,0.594858 1.021643,0.769464 0.409665,0.174604 0.878671,0.261999 1.406115,0.261999 0.235559,0 0.462968,-0.02199 0.683162,-0.06563 0.225317,-0.04365 0.432713,-0.100632 0.622184,-0.171567 0.189471,-0.07093 0.358442,-0.150407 0.506947,-0.237709 0.148503,-0.09276 0.253775,-0.168908 0.315224,-0.228928 0.06145,-0.06548 0.09988,-0.117351 0.11524,-0.155546 0.02048,-0.04365 0.03575,-0.09834 0.04599,-0.163814 0.01537,-0.06548 0.02537,-0.144436 0.03049,-0.237194 0.01024,-0.09822 0.01551,-0.218321 0.01551,-0.360185 0,-0.18006 -0.0053,-0.32725 -0.01551,-0.441833 -0.01024,-0.114586 -0.02551,-0.207603 -0.04599,-0.278538 -0.01537,-0.07639 -0.038,-0.128262 -0.06873,-0.155546 -0.03073,-0.02728 -0.06915,-0.04082 -0.11524,-0.04082 -0.06657,0 -0.148682,0.04396 -0.245978,0.131257 -0.0973,0.08185 -0.217836,0.174347 -0.361219,0.278019 -0.143383,0.103671 -0.312354,0.198985 -0.506945,0.286287 -0.18947,0.08185 -0.417396,0.122991 -0.68368,0.122991 -0.261163,0 -0.491202,-0.04906 -0.690915,-0.147277 -0.19459,-0.103672 -0.358817,-0.256485 -0.491958,-0.458372 -0.128021,-0.201885 -0.225401,-0.452824 -0.291973,-0.752925 -0.06657,-0.300101 -0.09973,-0.646872 -0.09973,-1.039731 0,-0.796628 0.133176,-1.399447 0.39946,-1.808675 0.266282,-0.414685 0.650542,-0.621665 1.152382,-0.621665 0.256043,0 0.476076,0.03781 0.660427,0.114204 0.184348,0.07639 0.343315,0.160973 0.476456,0.25373 0.133141,0.09276 0.24842,0.177343 0.345715,0.253731 0.0973,0.07639 0.189416,0.114723 0.276469,0.114723 0.08193,0 0.148264,-0.06261 0.199472,-0.188103 0.05121,-0.130953 0.077,-0.354806 0.077,-0.671277 0,-0.136409 -0.0053,-0.250889 -0.0155,-0.343649 -0.0051,-0.09821 -0.01514,-0.179985 -0.03049,-0.245462 -0.01024,-0.06548 -0.02814,-0.11735 -0.05374,-0.155546 -0.02048,-0.04365 -0.05891,-0.09553 -0.115239,-0.155546 -0.05633,-0.06002 -0.15371,-0.131061 -0.291971,-0.212907 -0.133141,-0.08185 -0.286845,-0.155699 -0.460954,-0.221176 -0.168987,-0.06548 -0.353227,-0.117351 -0.552937,-0.155546 -0.194593,-0.0382 -0.394616,-0.05684 -0.599448,-0.05684 z m 37.353784,0.130741 c -0.25092,0 -0.45043,0.0084 -0.59893,0.02482 -0.14338,0.01638 -0.24814,0.04346 -0.31471,0.08165 -0.0666,0.0382 -0.10025,0.09288 -0.10025,0.163814 0.005,0.06548 0.0309,0.147249 0.077,0.245465 l 1.75131,3.371887 -1.89704,3.593063 c -0.0461,0.09276 -0.0692,0.168904 -0.0692,0.228925 0.005,0.06002 0.0383,0.109601 0.0997,0.147796 0.0614,0.03819 0.15883,0.06247 0.29197,0.07338 0.13314,0.01638 0.31212,0.02482 0.53744,0.02482 0.21507,0 0.3893,-0.0056 0.52244,-0.01654 0.13315,-0.0054 0.23579,-0.019 0.30748,-0.04082 0.0768,-0.02728 0.13313,-0.05718 0.16898,-0.08992 0.0358,-0.0382 0.0637,-0.08496 0.0842,-0.139528 l 1.26763,-2.594155 1.2671,2.594155 c 0.0205,0.05456 0.0489,0.101333 0.0847,0.139528 0.041,0.03274 0.0999,0.06264 0.17674,0.08992 0.0819,0.02183 0.19195,0.03537 0.33021,0.04082 0.14338,0.0109 0.33025,0.01654 0.56069,0.01654 0.2458,0 0.44267,-0.0084 0.59117,-0.02482 0.14851,-0.01093 0.25904,-0.03519 0.33073,-0.07338 0.0717,-0.0382 0.10749,-0.08778 0.10749,-0.147796 0.005,-0.06002 -0.0128,-0.136168 -0.0537,-0.228925 l -1.88206,-3.650425 1.70533,-3.314525 c 0.0563,-0.109128 0.0842,-0.196525 0.0842,-0.262001 0.005,-0.07093 -0.0228,-0.125619 -0.0842,-0.163814 -0.0563,-0.03819 -0.15371,-0.06247 -0.29198,-0.07338 -0.13314,-0.0109 -0.31263,-0.01654 -0.53795,-0.01654 -0.19971,0 -0.35816,0.0056 -0.47594,0.01654 -0.11266,0.0109 -0.20215,0.02727 -0.26872,0.04909 -0.0666,0.02183 -0.11552,0.04891 -0.14624,0.08165 -0.0307,0.03274 -0.0539,0.07107 -0.0693,0.114721 l -1.21336,2.439128 -1.22111,-2.439128 c -0.0256,-0.05456 -0.0567,-0.09852 -0.0925,-0.131257 -0.0358,-0.0382 -0.0922,-0.06528 -0.16898,-0.08165 -0.0768,-0.01638 -0.18419,-0.0271 -0.32246,-0.03256 -0.13314,-0.0109 -0.31263,-0.01654 -0.53795,-0.01654 z m -26.891889,1.31775 c 0.486479,0 0.844949,0.166354 1.075386,0.499194 0.235558,0.327383 0.345574,0.780198 0.330213,1.358572 h -2.888197 c 0.01024,-0.25645 0.04604,-0.496657 0.107487,-0.720367 0.06657,-0.229169 0.159207,-0.425421 0.276987,-0.589114 0.122899,-0.169145 0.273973,-0.302794 0.453202,-0.401008 0.184348,-0.09822 0.399121,-0.147277 0.644922,-0.147277 z m 21.837939,0 c 0.48648,0 0.84495,0.166354 1.07538,0.499194 0.23556,0.327383 0.34558,0.780198 0.33022,1.358572 h -2.8882 c 0.0102,-0.25645 0.046,-0.496657 0.10749,-0.720367 0.0666,-0.229169 0.15869,-0.425421 0.27646,-0.589114 0.12291,-0.169145 0.27398,-0.302794 0.45321,-0.401008 0.18435,-0.09822 0.39964,-0.147277 0.64544,-0.147277 z m -39.896271,3.208073 h 0.737423 v 1.244367 c -0.235556,0.283731 -0.468744,0.49915 -0.69918,0.646472 -0.225316,0.147323 -0.473771,0.221176 -0.745175,0.221176 -0.322612,0 -0.57581,-0.08739 -0.760161,-0.261998 -0.179229,-0.174604 -0.269235,-0.414814 -0.269235,-0.720371 0,-0.180059 0.03105,-0.337981 0.0925,-0.47439 0.06657,-0.141864 0.168696,-0.261969 0.306959,-0.360185 0.138263,-0.09821 0.317757,-0.172067 0.537951,-0.221173 0.220197,-0.04911 0.486547,-0.0739 0.798917,-0.0739 z m -5.371248,8.945189 c -0.192627,0 -0.351507,0.0084 -0.476456,0.02482 -0.124947,0.01638 -0.226283,0.04064 -0.304374,0.07338 -0.07289,0.02728 -0.124825,0.0628 -0.156062,0.106453 -0.02604,0.04365 -0.03928,0.09271 -0.03928,0.147278 v 3.953248 c -0.31237,-0.321929 -0.627586,-0.564431 -0.945163,-0.728123 -0.317577,-0.169148 -0.671486,-0.25373 -1.06195,-0.25373 -0.494586,0 -0.932014,0.09813 -1.312064,0.294555 -0.380053,0.19643 -0.697293,0.477264 -0.952397,0.842844 -0.255103,0.365577 -0.450651,0.807659 -0.586009,1.326017 -0.130157,0.518356 -0.194821,1.102003 -0.194821,1.751314 0,0.540182 0.05194,1.056117 0.156062,1.547191 0.104124,0.485619 0.270639,0.911347 0.49971,1.276924 0.234278,0.36558 0.533705,0.657143 0.898137,0.875401 0.369638,0.212799 0.819792,0.31936 1.350822,0.31936 0.47897,0 0.913849,-0.111668 1.304314,-0.335381 0.395668,-0.22371 0.773004,-0.537771 1.132231,-0.941543 v 0.810286 c 0,0.06002 0.01323,0.111895 0.03927,0.155546 0.03124,0.0382 0.07809,0.0709 0.14056,0.09818 0.06768,0.02728 0.153226,0.04645 0.25735,0.05736 0.104124,0.0109 0.23958,0.01654 0.406178,0.01654 0.156183,0 0.286549,-0.0056 0.390673,-0.01654 0.109328,-0.01093 0.194873,-0.03008 0.257349,-0.05736 0.06247,-0.02728 0.106776,-0.05999 0.132808,-0.09818 0.02604,-0.04365 0.03928,-0.09553 0.03928,-0.155546 V 61.949936 c 0,-0.05456 -0.0158,-0.103627 -0.04703,-0.147278 -0.03124,-0.04365 -0.08318,-0.07917 -0.156062,-0.106453 -0.07289,-0.03274 -0.171675,-0.05701 -0.296625,-0.07338 -0.124946,-0.01638 -0.283826,-0.02482 -0.476456,-0.02482 z m 32.299319,0.253733 c -0.44253,0 -0.7445,0.08229 -0.90589,0.245978 -0.15619,0.158237 -0.23461,0.444693 -0.23461,0.85938 0,0.398317 0.0754,0.673529 0.22634,0.826307 0.15618,0.152778 0.45561,0.229441 0.89814,0.229441 0.43732,0 0.73674,-0.07948 0.89813,-0.237709 0.16139,-0.158237 0.24236,-0.444693 0.24237,-0.85938 0,-0.398317 -0.0784,-0.673526 -0.23462,-0.826307 -0.15618,-0.158234 -0.45255,-0.23771 -0.88986,-0.23771 z M 60.10247,62.37578 c -0.171802,0 -0.317439,0.05469 -0.437181,0.163817 -0.114536,0.103669 -0.171567,0.275648 -0.171567,0.515728 v 9.231995 c 0,0.240083 0.05703,0.414872 0.171567,0.524 0.119742,0.103672 0.265379,0.155546 0.437181,0.155546 h 5.076177 c 0.04686,0 0.08861,-0.01405 0.125058,-0.04134 0.04165,-0.03274 0.07526,-0.0818 0.101285,-0.147278 0.02604,-0.06548 0.04437,-0.150059 0.05478,-0.25373 0.01561,-0.109128 0.02326,-0.242774 0.02326,-0.401011 0,-0.158234 -0.0076,-0.289068 -0.02326,-0.392739 -0.01043,-0.109128 -0.02875,-0.196525 -0.05478,-0.262001 -0.02604,-0.06548 -0.05964,-0.111728 -0.101285,-0.13901 -0.03644,-0.03274 -0.0782,-0.04909 -0.125058,-0.04909 h -3.639055 v -2.987416 h 3.053561 c 0.04686,0 0.0881,-0.01355 0.12454,-0.04082 0.04165,-0.02728 0.07577,-0.07124 0.101803,-0.131258 0.02604,-0.06548 0.04437,-0.150061 0.05478,-0.253732 0.01561,-0.103669 0.02326,-0.234506 0.02326,-0.39274 0,-0.152778 -0.0076,-0.280802 -0.02326,-0.384474 -0.0104,-0.109127 -0.02875,-0.193709 -0.05478,-0.25373 -0.02604,-0.06548 -0.06015,-0.111728 -0.101803,-0.13901 -0.03644,-0.03274 -0.07769,-0.04909 -0.12454,-0.04909 h -3.053561 v -2.586405 h 3.608049 c 0.04686,0 0.0881,-0.01355 0.124542,-0.04082 0.03644,-0.03274 0.06802,-0.08232 0.09405,-0.147796 0.02604,-0.06548 0.04385,-0.150059 0.05426,-0.25373 0.01561,-0.109128 0.02376,-0.239964 0.02376,-0.392742 0,-0.163693 -0.0081,-0.297337 -0.02376,-0.401008 -0.01042,-0.109128 -0.02823,-0.196525 -0.05426,-0.262001 -0.02604,-0.07093 -0.05761,-0.119997 -0.09405,-0.147278 -0.03644,-0.02728 -0.07769,-0.04082 -0.124542,-0.04082 z m 39.663215,0.761196 c -0.187423,0 -0.345786,0.0084 -0.47594,0.02482 -0.12495,0.0109 -0.226799,0.03237 -0.30489,0.06511 -0.07289,0.02728 -0.124828,0.0628 -0.156065,0.106455 -0.02604,0.04365 -0.03928,0.09271 -0.03928,0.147278 v 1.628841 h -0.827338 c -0.05206,0 -0.09891,0.01355 -0.14056,0.04082 -0.03644,0.02728 -0.06802,0.07353 -0.09405,0.13901 -0.02604,0.06002 -0.04691,0.144605 -0.06253,0.253733 -0.01042,0.109127 -0.0155,0.242773 -0.0155,0.401007 0,0.300104 0.02595,0.516036 0.07803,0.646991 0.05206,0.125497 0.127426,0.1881 0.226343,0.1881 h 0.835607 v 3.740341 c 0,0.447424 0.0443,0.834819 0.13281,1.162204 0.0885,0.327384 0.226505,0.600299 0.413927,0.818554 0.187423,0.212799 0.424212,0.370719 0.710551,0.47439 0.28634,0.103672 0.62497,0.155546 1.01544,0.155546 0.14577,0 0.28886,-0.0079 0.42943,-0.02429 0.14577,-0.01638 0.27868,-0.04116 0.39842,-0.07389 0.12495,-0.02728 0.23444,-0.05999 0.32815,-0.09819 0.0937,-0.04365 0.16398,-0.09271 0.21084,-0.147278 0.0469,-0.06002 0.083,-0.149709 0.10903,-0.26975 0.026,-0.125497 0.0393,-0.308721 0.0393,-0.548804 0,-0.152779 -0.008,-0.27799 -0.0238,-0.376203 -0.0104,-0.09822 -0.0232,-0.174882 -0.0388,-0.229444 -0.0156,-0.06002 -0.039,-0.09784 -0.0703,-0.114205 -0.026,-0.02183 -0.0546,-0.03307 -0.0858,-0.03307 -0.0365,0 -0.0782,0.01125 -0.12506,0.03307 -0.0417,0.01638 -0.0966,0.03783 -0.16433,0.06511 -0.0625,0.02183 -0.13529,0.04381 -0.21859,0.06563 -0.0833,0.01638 -0.177,0.02482 -0.28112,0.02482 -0.30716,0 -0.52053,-0.09864 -0.64027,-0.295074 -0.11974,-0.201885 -0.17983,-0.501885 -0.17983,-0.900202 v -3.429263 h 3.13159 v 5.909202 c 0,0.05456 0.0158,0.103627 0.047,0.147278 0.0312,0.0382 0.0832,0.0709 0.15606,0.09818 0.0729,0.02728 0.17219,0.04645 0.29714,0.05736 0.13016,0.01638 0.29107,0.02482 0.48369,0.02482 0.18743,0 0.34376,-0.0084 0.46871,-0.02482 0.13015,-0.01093 0.23201,-0.03008 0.30489,-0.05736 0.0729,-0.02728 0.12483,-0.05999 0.15606,-0.09818 0.0312,-0.04365 0.0465,-0.09271 0.0465,-0.147278 V 65.68257 c 0,-0.185518 -0.0438,-0.327599 -0.13229,-0.425813 -0.0833,-0.09822 -0.23454,-0.147277 -0.4532,-0.147277 h -4.50618 v -1.628841 c 0,-0.05456 -0.0153,-0.103627 -0.0465,-0.147278 -0.0312,-0.04365 -0.0832,-0.07917 -0.15607,-0.106455 -0.0729,-0.03274 -0.17474,-0.0542 -0.30489,-0.06511 -0.12494,-0.01638 -0.283823,-0.02482 -0.47645,-0.02482 z m -6.20014,1.784387 c -0.307163,0 -0.606589,0.02708 -0.898136,0.08165 -0.28634,0.04911 -0.552159,0.114525 -0.796851,0.196372 -0.244689,0.08185 -0.458055,0.172053 -0.640271,0.270266 -0.182215,0.09276 -0.309517,0.180155 -0.382405,0.262001 -0.07289,0.07639 -0.122279,0.163785 -0.148312,0.261998 -0.02603,0.09822 -0.03927,0.231863 -0.03927,0.401011 0,0.125497 0.0076,0.239977 0.02326,0.343649 0.01561,0.103671 0.0365,0.191066 0.06253,0.261998 0.03124,0.07093 0.0679,0.125103 0.109556,0.163298 0.04686,0.0382 0.09879,0.05736 0.156062,0.05736 0.0833,3e-6 0.19024,-0.03833 0.320394,-0.11472 0.135361,-0.07639 0.301877,-0.160457 0.499711,-0.253215 0.197834,-0.09276 0.423926,-0.177342 0.679029,-0.25373 0.260308,-0.07639 0.554644,-0.114723 0.882632,-0.114723 0.249896,0 0.458171,0.02708 0.624768,0.08165 0.171805,0.05456 0.307261,0.139147 0.406178,0.25373 0.104124,0.114584 0.17694,0.259477 0.218591,0.434081 0.04685,0.169151 0.07028,0.368213 0.07028,0.597382 v 0.441833 h -0.679545 c -0.619535,0 -1.163383,0.04906 -1.631939,0.147277 -0.468556,0.09822 -0.861679,0.251027 -1.179259,0.45837 -0.31237,0.201888 -0.549158,0.461261 -0.710549,0.777732 -0.156186,0.311012 -0.234611,0.679241 -0.234611,1.104842 0,0.392859 0.06264,0.736298 0.187584,1.030944 0.124949,0.294645 0.299617,0.543287 0.523483,0.745175 0.229071,0.196429 0.496922,0.343617 0.804085,0.441833 0.312372,0.103671 0.653555,0.155546 1.023194,0.155546 0.447731,0 0.85358,-0.09021 1.218012,-0.270267 0.369639,-0.180062 0.697582,-0.431001 0.983922,-0.752927 v 0.581361 c 0,0.07639 0.02088,0.136181 0.06253,0.179832 0.04686,0.04365 0.122738,0.07355 0.226859,0.08992 0.109332,0.02183 0.280938,0.03307 0.515216,0.03307 0.218659,0 0.38263,-0.01125 0.491961,-0.03307 0.114535,-0.01638 0.198051,-0.04626 0.250113,-0.08992 0.05206,-0.04365 0.07803,-0.103445 0.07803,-0.179832 v -4.910813 c 0,-0.501988 -0.05755,-0.936151 -0.172083,-1.301729 C 96.355759,66.135021 96.173453,65.83783 95.923557,65.608664 95.67366,65.374037 95.353872,65.20206 94.96341,65.092933 94.578153,64.978347 94.112211,64.921367 93.565561,64.921367 Z m 17.648525,0 c -0.64036,0 -1.2,0.100936 -1.67896,0.302823 -0.47377,0.201888 -0.86943,0.488344 -1.18701,0.85938 -0.31758,0.365578 -0.55691,0.807659 -0.7183,1.326018 -0.15619,0.5129 -0.2341,1.08019 -0.2341,1.70222 0,0.643853 0.0728,1.216772 0.21859,1.718758 0.14578,0.501988 0.36932,0.924904 0.67128,1.268656 0.30196,0.343754 0.68236,0.605422 1.1405,0.785484 0.45814,0.18006 0.9969,0.270267 1.61644,0.270267 0.64036,0 1.2,-0.100939 1.67896,-0.302824 0.47897,-0.201888 0.87719,-0.488344 1.19476,-0.85938 0.31758,-0.371033 0.55437,-0.813115 0.71056,-1.326017 0.15618,-0.512901 0.23461,-1.080194 0.23461,-1.702221 0,-0.649312 -0.0733,-1.22504 -0.21911,-1.727028 -0.14577,-0.501986 -0.36932,-0.924902 -0.67128,-1.268656 -0.29675,-0.343752 -0.67409,-0.603126 -1.13223,-0.77773 -0.45814,-0.180062 -0.99996,-0.26975 -1.62471,-0.26975 z m 9.30125,0 c -0.43212,0 -0.84867,0.108855 -1.24954,0.327112 -0.39567,0.218255 -0.78625,0.545857 -1.17151,0.982369 v -0.84336 c 0,-0.05457 -0.0132,-0.100816 -0.0393,-0.139009 -0.026,-0.04365 -0.0703,-0.07917 -0.13281,-0.106455 -0.0573,-0.02728 -0.14027,-0.04645 -0.24959,-0.05736 -0.10934,-0.01638 -0.24734,-0.02429 -0.41393,-0.02429 -0.1614,0 -0.29685,0.0079 -0.40618,0.02429 -0.10412,0.0109 -0.19018,0.03008 -0.25787,0.05736 -0.0677,0.02728 -0.11453,0.0628 -0.14056,0.106455 -0.026,0.03819 -0.0387,0.08444 -0.0387,0.139009 v 7.300847 c 0,0.05456 0.0158,0.103627 0.047,0.147278 0.0312,0.0382 0.0832,0.0709 0.15606,0.09818 0.0781,0.02728 0.17943,0.04645 0.30438,0.05736 0.12495,0.01638 0.28383,0.02482 0.47646,0.02482 0.19263,0 0.3515,-0.0084 0.47645,-0.02482 0.12495,-0.01093 0.22374,-0.03008 0.29663,-0.05736 0.0781,-0.02728 0.13257,-0.05999 0.16381,-0.09818 0.0312,-0.04365 0.047,-0.09272 0.047,-0.147278 V 67.83488 c 0.27593,-0.36558 0.54124,-0.643601 0.79634,-0.834575 0.2551,-0.190974 0.50768,-0.286803 0.75758,-0.286803 0.19783,0 0.36995,0.04114 0.51573,0.122989 0.15098,0.07639 0.27319,0.188058 0.3669,0.33538 0.0937,0.141867 0.16398,0.313844 0.21084,0.515732 0.0521,0.201885 0.078,0.479909 0.078,0.834572 v 4.166156 c 0,0.05456 0.0158,0.103627 0.047,0.147278 0.0312,0.0382 0.0832,0.0709 0.15606,0.09818 0.0729,0.02728 0.17167,0.04645 0.29662,0.05736 0.13016,0.01638 0.29158,0.02482 0.48421,0.02482 0.18742,0 0.34376,-0.0084 0.46871,-0.02482 0.13015,-0.01093 0.23148,-0.03008 0.30437,-0.05736 0.0729,-0.02728 0.12534,-0.05999 0.15658,-0.09818 0.0312,-0.04365 0.0465,-0.09272 0.0465,-0.147278 v -4.509802 c 0,-0.529272 -0.0443,-0.982083 -0.13281,-1.358575 -0.0885,-0.376491 -0.23414,-0.703577 -0.43718,-0.981852 -0.19784,-0.283732 -0.4606,-0.507585 -0.78859,-0.671277 -0.32278,-0.16369 -0.72099,-0.245462 -1.19475,-0.245462 z m -33.322511,0.0083 c -0.510206,0 -0.978694,0.08458 -1.405599,0.25373 -0.426908,0.169148 -0.796607,0.428006 -1.108977,0.777213 -0.31237,0.349211 -0.556795,0.791292 -0.733806,1.326018 -0.171805,0.52927 -0.257866,1.159685 -0.257866,1.890842 0,0.632942 0.07027,1.19461 0.210842,1.685684 0.145772,0.491075 0.359137,0.908368 0.64027,1.25212 0.281133,0.338296 0.627409,0.594857 1.038696,0.769464 0.416494,0.174604 0.893133,0.261998 1.429369,0.261998 0.239485,0 0.471183,-0.02199 0.69505,-0.06563 0.229071,-0.04365 0.439891,-0.100631 0.632518,-0.171566 0.19263,-0.07093 0.364236,-0.150408 0.515215,-0.23771 0.15098,-0.09276 0.257919,-0.168907 0.320395,-0.228928 0.06247,-0.06548 0.101169,-0.11735 0.116787,-0.155546 0.02082,-0.04365 0.03661,-0.09834 0.04703,-0.163814 0.01561,-0.06548 0.0258,-0.144436 0.031,-0.237194 0.01042,-0.09822 0.01601,-0.218318 0.01601,-0.360185 0,-0.180062 -0.0056,-0.32725 -0.01601,-0.441833 -0.01042,-0.114586 -0.02569,-0.207602 -0.04651,-0.278537 -0.01561,-0.07639 -0.03904,-0.128262 -0.07028,-0.155546 -0.03124,-0.02728 -0.07045,-0.04082 -0.117306,-0.04082 -0.06768,0 -0.151196,0.04396 -0.250113,0.131257 -0.09892,0.08185 -0.221131,0.174348 -0.366903,0.278019 -0.145775,0.103672 -0.317381,0.198986 -0.515215,0.286287 -0.192628,0.08185 -0.424326,0.122992 -0.695047,0.122992 -0.265515,0 -0.499759,-0.04906 -0.7028,-0.147278 -0.197834,-0.103671 -0.36435,-0.256484 -0.499711,-0.458372 -0.130156,-0.201885 -0.229459,-0.452824 -0.29714,-0.752925 -0.06768,-0.300101 -0.101285,-0.646869 -0.101285,-1.03973 0,-0.796634 0.135456,-1.399445 0.406175,-1.808676 0.270722,-0.414684 0.6613,-0.621665 1.171506,-0.621665 0.260308,0 0.483854,0.03781 0.671277,0.114205 0.187423,0.07639 0.348848,0.160972 0.484209,0.25373 0.135358,0.09276 0.252481,0.177342 0.351398,0.25373 0.09892,0.07639 0.192614,0.114723 0.28112,0.114723 0.0833,0 0.151027,-0.06261 0.203089,-0.188102 0.05206,-0.130953 0.07803,-0.354807 0.07803,-0.671278 0,-0.136408 -0.0051,-0.250888 -0.01551,-0.343648 -0.0052,-0.09821 -0.0154,-0.179986 -0.03101,-0.245462 -0.0104,-0.06548 -0.02875,-0.117351 -0.05478,-0.155546 -0.02082,-0.04365 -0.06004,-0.09552 -0.117305,-0.155546 -0.05727,-0.06002 -0.156057,-0.131061 -0.296622,-0.212908 -0.135361,-0.08185 -0.291695,-0.155699 -0.468707,-0.221175 -0.171804,-0.06548 -0.359198,-0.117351 -0.562239,-0.155546 -0.197835,-0.0382 -0.401019,-0.05684 -0.609264,-0.05684 z M 76.46323,65.060404 c -0.187423,0 -0.346303,0.0079 -0.476457,0.02429 -0.124946,0.0109 -0.226798,0.03008 -0.30489,0.05736 -0.07289,0.02728 -0.124827,0.0628 -0.156064,0.106455 -0.02604,0.03819 -0.03876,0.08444 -0.03876,0.139009 v 4.468977 c 0,0.556554 0.04124,1.022908 0.124539,1.399397 0.08851,0.371036 0.232114,0.698638 0.429948,0.982371 0.203041,0.283732 0.465799,0.507585 0.788583,0.671275 0.327988,0.163692 0.731295,0.245464 1.210262,0.245464 0.426905,0 0.838364,-0.109373 1.234033,-0.327628 0.400875,-0.218257 0.793998,-0.545341 1.179256,-0.981853 v 0.842844 c 0,0.05456 0.01273,0.103626 0.03876,0.147277 0.02603,0.0382 0.07034,0.0709 0.132808,0.09819 0.06247,0.02728 0.145992,0.04645 0.250113,0.05736 0.109331,0.01638 0.249878,0.02482 0.42168,0.02482 0.161393,0 0.294301,-0.0084 0.398426,-0.02482 0.109331,-0.01093 0.194876,-0.03008 0.257349,-0.05736 0.06768,-0.02728 0.114528,-0.05999 0.14056,-0.09819 0.02603,-0.04365 0.03927,-0.09271 0.03927,-0.147277 v -7.300847 c 0,-0.05456 -0.0158,-0.100817 -0.04703,-0.139009 -0.03124,-0.04365 -0.08318,-0.07917 -0.156062,-0.106455 -0.07289,-0.02728 -0.171675,-0.04645 -0.296624,-0.05736 -0.124947,-0.01638 -0.283827,-0.02429 -0.476457,-0.02429 -0.192627,0 -0.351507,0.0079 -0.476456,0.02429 -0.124947,0.0109 -0.226282,0.03008 -0.304374,0.05736 -0.07289,0.02728 -0.125341,0.0628 -0.156581,0.106455 -0.02604,0.03819 -0.03876,0.08444 -0.03876,0.139009 v 4.853967 c -0.28634,0.365577 -0.557249,0.643601 -0.812353,0.834575 -0.249896,0.190974 -0.499411,0.286287 -0.749308,0.286287 -0.197837,0 -0.372504,-0.03782 -0.523483,-0.114205 -0.145772,-0.08185 -0.267986,-0.194032 -0.366903,-0.335896 -0.09371,-0.147323 -0.163984,-0.321596 -0.210839,-0.523484 -0.04686,-0.201885 -0.07028,-0.493966 -0.07028,-0.875916 v -4.125328 c 0,-0.05456 -0.0158,-0.100817 -0.04702,-0.139009 -0.03124,-0.04365 -0.08572,-0.07917 -0.163814,-0.106455 -0.07289,-0.02728 -0.172191,-0.04645 -0.297141,-0.05736 -0.124949,-0.01638 -0.28331,-0.02429 -0.47594,-0.02429 z m 34.68056,1.489316 c 0.32799,0 0.5989,0.06312 0.81236,0.188618 0.21866,0.125498 0.39333,0.299771 0.52348,0.523481 0.13015,0.223713 0.22079,0.48871 0.27285,0.794269 0.0573,0.300101 0.0863,0.629997 0.0863,0.990118 0,0.387406 -0.0341,0.734174 -0.1018,1.039731 -0.0677,0.300101 -0.17156,0.556146 -0.31213,0.768945 -0.14057,0.212799 -0.32032,0.376859 -0.53898,0.491443 -0.21866,0.109127 -0.47633,0.163298 -0.77308,0.163298 -0.32278,0 -0.5937,-0.05979 -0.81236,-0.179835 -0.21866,-0.125497 -0.39281,-0.300286 -0.52296,-0.523999 -0.12495,-0.223711 -0.2161,-0.485378 -0.27337,-0.785482 -0.0573,-0.305557 -0.0858,-0.638265 -0.0858,-0.998387 0,-0.387405 0.0336,-0.731361 0.10128,-1.031462 0.0729,-0.305559 0.17983,-0.56493 0.3204,-0.77773 0.14057,-0.218257 0.31981,-0.381799 0.53847,-0.490926 0.21866,-0.114586 0.47378,-0.172082 0.76532,-0.172082 z m -41.162333,0.11472 c 0.281133,0 0.548981,0.09813 0.804084,0.294556 0.260308,0.196429 0.53122,0.480592 0.812353,0.851627 v 2.422592 c -0.166597,0.218254 -0.320387,0.403775 -0.460954,0.556556 -0.140566,0.147323 -0.278567,0.267425 -0.413928,0.360182 -0.130154,0.09276 -0.260003,0.160473 -0.390157,0.204124 -0.12495,0.03819 -0.255312,0.05736 -0.390673,0.05736 -0.270722,0 -0.494268,-0.06823 -0.671277,-0.20464 -0.177012,-0.136411 -0.32062,-0.316307 -0.429948,-0.54002 -0.104124,-0.229169 -0.179488,-0.48854 -0.226343,-0.777729 -0.04685,-0.28919 -0.07028,-0.586378 -0.07028,-0.891934 0,-0.28919 0.02598,-0.570024 0.07803,-0.842844 0.05727,-0.278275 0.140782,-0.529214 0.250113,-0.752925 0.114536,-0.223713 0.262718,-0.401314 0.444934,-0.532267 0.187423,-0.136412 0.40894,-0.20464 0.664044,-0.20464 z m 23.981998,2.921813 h 0.749823 v 1.244367 c -0.239482,0.283734 -0.476271,0.49915 -0.710549,0.646472 -0.229073,0.147323 -0.48165,0.221176 -0.757576,0.221176 -0.327991,0 -0.585658,-0.08739 -0.773081,-0.261998 -0.182216,-0.174607 -0.273367,-0.414814 -0.273367,-0.720371 0,-0.180062 0.03106,-0.337979 0.09353,-0.47439 0.06768,-0.141867 0.172077,-0.261969 0.312642,-0.360185 0.140568,-0.09821 0.322871,-0.172067 0.546738,-0.221173 0.223866,-0.04911 0.49426,-0.0739 0.811837,-0.0739 z" />
  </g>
</svg>
