<?xml version="1.0" encoding="UTF-8" standalone="no"?>
<!-- Created with Inkscape (http://www.inkscape.org/) -->

<svg
   width="200"
   height="110"
   viewBox="0 0 52.916668 29.10417"
   version="1.1"
   id="svg5"
   sodipodi:docname="ONE.svg"
   inkscape:version="1.1 (c68e22c387, 2021-05-23)"
   xmlns:inkscape="http://www.inkscape.org/namespaces/inkscape"
   xmlns:sodipodi="http://sodipodi.sourceforge.net/DTD/sodipodi-0.dtd"
   xmlns="http://www.w3.org/2000/svg"
   xmlns:svg="http://www.w3.org/2000/svg">
  <sodipodi:namedview
     id="namedview7"
     pagecolor="#505050"
     bordercolor="#eeeeee"
     borderopacity="1"
     inkscape:pageshadow="0"
     inkscape:pageopacity="0"
     inkscape:pagecheckerboard="0"
     inkscape:document-units="px"
     showgrid="false"
     inkscape:zoom="2.03125"
     inkscape:cx="107.07692"
     inkscape:cy="53.415385"
     inkscape:window-width="1366"
     inkscape:window-height="705"
     inkscape:window-x="-8"
     inkscape:window-y="-8"
     inkscape:window-maximized="1"
     inkscape:current-layer="layer3"
     units="mm" />
  <defs
     id="defs2" />
  <g
     inkscape:groupmode="layer"
     id="layer3"
     inkscape:label="Capa 2"
     style="display:inline">
    <path
       id="path1614"
       style="fill:#000000;fill-opacity:1;stroke-width:0.437191"
       d="M 10.110229,2.5728232 9.9214275,3.8132819 c -0.262119,1.722089 -0.238262,2.4379099 0.093459,2.8085779 0.264674,0.2957532 0.429848,0.3071062 3.000975,0.2067753 3.65831,-0.1427561 3.728586,-0.1580047 3.854747,-0.830504 0.158952,-0.8472887 0.0086,-2.869366 -0.235152,-3.1631034 C 16.447255,2.6082638 15.990773,2.5728232 13.264063,2.5728232 Z M 26.367861,3.297196 C 24.786433,3.302556 23.805887,3.7704655 23.06117,4.8751538 22.350761,5.9289464 22.174108,6.715126 22.247691,8.49475 c 0.05425,1.3121733 0.127354,1.638138 0.533112,2.379894 0.555617,1.015711 1.261136,1.597492 2.290224,1.888213 0.997484,0.281795 2.60573,0.151341 3.50533,-0.284148 1.455878,-0.704779 2.208375,-2.421846 2.095557,-4.7815456 C 30.530525,4.7399132 29.110094,3.287916 26.367861,3.297196 Z m 5.934035,0.075863 v 4.7215744 4.7213846 h 0.797018 0.797019 l 0.04332,-3.303096 0.04332,-3.3029078 2.206794,3.3116089 2.206795,3.3114209 0.754073,-0.04843 0.754075,-0.04862 V 8.0946327 3.4530817 h -0.800229 -0.800234 l -0.08002,3.2257216 -0.08002,3.2257229 -2.160633,-3.2620458 -2.160634,-3.2618553 -0.760318,-0.00379 z m 9.522982,0.080024 -0.04257,4.4792341 c -0.02343,2.4635939 -0.0076,4.5702459 0.03499,4.6814669 0.05866,0.152865 0.801514,0.202235 3.043538,0.202235 h 2.965977 V 12.095808 11.375596 H 45.66618 43.505545 V 10.015198 8.6547977 h 1.920567 1.920563 V 8.0146094 7.3744209 H 45.426117 43.50555 V 6.0938563 4.8134806 h 2.169905 2.169905 L 47.79599,4.1333762 47.746802,3.4530817 H 44.785933 Z M 26.298242,4.6903244 c 0.614767,-0.00669 1.277241,0.1549004 1.68352,0.4441959 1.390923,0.9904234 1.385643,4.9335777 -0.008,5.9258997 -0.53726,0.382564 -1.768869,0.533159 -2.508158,0.306663 -1.19615,-0.366476 -1.891624,-2.3371359 -1.523445,-4.3169173 0.221644,-1.1918298 0.774024,-1.9779142 1.575878,-2.2425499 0.231214,-0.076308 0.500741,-0.1142529 0.780179,-0.1172914 z M 16.196365,7.7191093 c -0.858863,0.0019 -2.27716,0.03926 -3.852478,0.1061302 C 8.0921627,8.0057196 7.7139869,8.0458062 7.1083087,8.3799171 6.2643748,8.8454579 6.0840854,9.2559718 6.0381129,10.81543 l -0.037837,1.280377 1.9873448,0.187478 c 1.0930021,0.103102 3.3307943,0.170079 4.9728063,0.148697 3.416896,-0.0445 3.610331,-0.105473 4.058307,-1.278485 0.19964,-0.522751 0.257712,-1.060539 0.215289,-1.9947217 -0.03195,-0.7033981 -0.114211,-1.3348048 -0.182749,-1.4033436 -0.0257,-0.025702 -0.339592,-0.037456 -0.854909,-0.036322 z M 8.2174758,13.356886 c -2.9232895,-0.0075 -5.4211978,0.102383 -5.6364533,0.317634 -0.1290057,0.129006 -0.6863927,3.678539 -0.5925143,3.773212 0.049,0.04941 0.7856305,0.133447 1.6369815,0.18672 2.6810796,0.167771 10.6083443,0.0604 11.2581493,-0.152478 1.204367,-0.39456 1.333157,-0.616068 1.333157,-2.290791 V 13.696276 L 14.93642,13.59355 C 13.022118,13.439784 10.491145,13.362763 8.2174758,13.356886 Z m 26.1008972,3.281152 c -0.06936,0 -0.126405,0.0029 -0.171398,0.0089 -0.045,0.006 -0.08161,0.01507 -0.109725,0.02706 -0.02625,0.01 -0.04494,0.02299 -0.05619,0.03897 -0.01124,0.01598 -0.01702,0.03394 -0.01702,0.05392 v 3.940069 c 0,0.01998 0.0058,0.03794 0.01702,0.05392 0.01125,0.01399 0.02995,0.02596 0.05619,0.03594 0.02812,0.01 0.06473,0.017 0.109725,0.021 0.045,0.006 0.102039,0.0091 0.171398,0.0091 0.06936,0 0.126596,-0.0031 0.171588,-0.0091 0.045,-0.004 0.08064,-0.01096 0.10689,-0.021 0.02812,-0.01 0.04777,-0.02196 0.05903,-0.03594 0.01125,-0.01598 0.01683,-0.03394 0.01683,-0.05392 v -3.940071 c 0,-0.01998 -0.0055,-0.03794 -0.01683,-0.05392 -0.01125,-0.01598 -0.03091,-0.02898 -0.05903,-0.03897 -0.02625,-0.01198 -0.06189,-0.02106 -0.10689,-0.02706 -0.045,-0.006 -0.102228,-0.0089 -0.171588,-0.0089 z m -9.79408,0.224747 c -0.288698,0 -0.542872,0.04687 -0.762208,0.14075 -0.217462,0.09389 -0.400149,0.228688 -0.548247,0.404469 -0.148099,0.17578 -0.259674,0.389636 -0.334661,0.641323 -0.07499,0.249688 -0.112373,0.531273 -0.112373,0.844881 0,0.341574 0.03468,0.637191 0.104055,0.88688 0.07124,0.249688 0.177035,0.455499 0.317634,0.617297 0.140601,0.161798 0.31596,0.28257 0.525923,0.362471 0.211838,0.0779 0.45927,0.116913 0.742346,0.116913 0.286824,0 0.538883,-0.04603 0.756344,-0.137913 0.219336,-0.09389 0.403174,-0.228687 0.551273,-0.404468 0.148099,-0.177778 0.259674,-0.393503 0.334661,-0.647188 0.07498,-0.253684 0.112374,-0.541254 0.112374,-0.862853 0,-0.335583 -0.03661,-0.626242 -0.109725,-0.871935 -0.07124,-0.247692 -0.177997,-0.452472 -0.320473,-0.61427 -0.1406,-0.161799 -0.316923,-0.281541 -0.52876,-0.359443 -0.209963,-0.0779 -0.45258,-0.116914 -0.728157,-0.116914 z m 17.774671,0.05695 c -0.06749,0 -0.122794,0.0029 -0.165911,0.0089 -0.04312,0.004 -0.07781,0.01204 -0.104055,0.02403 -0.02625,0.01198 -0.04513,0.02601 -0.05638,0.04199 -0.01124,0.01598 -0.01684,0.03394 -0.01684,0.05392 v 1.818784 c 0,0.137827 0.0011,0.282547 0.0029,0.434359 0.0038,0.151811 0.0084,0.29756 0.01399,0.437386 h -0.0025 c -0.03375,-0.0799 -0.06843,-0.159792 -0.104055,-0.239693 -0.03561,-0.0799 -0.07223,-0.160821 -0.109725,-0.242719 -0.0375,-0.08389 -0.07681,-0.166685 -0.118049,-0.248583 -0.03937,-0.0839 -0.07983,-0.168744 -0.121076,-0.254637 L 40.808779,17.33613 c -0.03562,-0.07791 -0.0703,-0.142732 -0.104055,-0.194668 -0.03376,-0.05393 -0.07036,-0.09585 -0.109725,-0.125806 -0.0375,-0.02997 -0.08066,-0.05101 -0.129401,-0.06299 -0.04874,-0.01399 -0.108673,-0.021 -0.17991,-0.021 h -0.396467 c -0.07499,0 -0.138773,0.02395 -0.191262,0.07188 -0.05062,0.04595 -0.07586,0.115919 -0.07586,0.209802 v 3.48471 c 0,0.01998 0.0047,0.03794 0.01399,0.05391 0.0094,0.01598 0.02632,0.02982 0.0507,0.04181 0.02439,0.01 0.0581,0.01803 0.101208,0.02403 0.04311,0.006 0.09746,0.0091 0.163074,0.0091 0.06749,0 0.122796,-0.0031 0.165914,-0.0091 0.04311,-0.006 0.07683,-0.01404 0.101209,-0.02403 0.02625,-0.01198 0.04416,-0.02583 0.05353,-0.04181 0.01124,-0.01598 0.01684,-0.03394 0.01684,-0.05391 V 18.66944 c 0,-0.151811 -0.0019,-0.298591 -0.0056,-0.440413 -0.0038,-0.143821 -0.0093,-0.287701 -0.01685,-0.431522 h 0.0056 c 0.04311,0.117853 0.09187,0.239843 0.146238,0.365687 0.05436,0.123845 0.107742,0.239658 0.160236,0.347525 l 0.905418,1.81273 c 0.04687,0.09988 0.08907,0.181826 0.126563,0.245746 0.03749,0.06193 0.07584,0.111689 0.115212,0.149641 0.04124,0.03596 0.08537,0.06093 0.132234,0.07492 0.04874,0.01399 0.105971,0.021 0.171589,0.021 h 0.314795 c 0.03561,0 0.07031,-0.005 0.104055,-0.01494 0.03561,-0.01198 0.06567,-0.02995 0.09004,-0.05392 0.02625,-0.02398 0.04687,-0.05391 0.06186,-0.08986 0.01501,-0.03596 0.02251,-0.07702 0.02251,-0.122967 v -3.484522 c 0,-0.01998 -0.0047,-0.03794 -0.01399,-0.05392 -0.0094,-0.01598 -0.02632,-0.03001 -0.0507,-0.04199 -0.02251,-0.01198 -0.05526,-0.02003 -0.09837,-0.02402 -0.04311,-0.006 -0.0965,-0.0089 -0.160236,-0.0089 z m 7.001773,0.290581 c -0.06749,0 -0.124533,0.0031 -0.171398,0.0091 -0.045,0.004 -0.08161,0.01185 -0.109725,0.02383 -0.02625,0.01 -0.04494,0.02299 -0.05619,0.03897 -0.0094,0.01598 -0.01421,0.03394 -0.01421,0.05392 v 0.596298 h -0.297963 c -0.01875,0 -0.03569,0.005 -0.0507,0.01494 -0.0131,0.01 -0.02431,0.02692 -0.03368,0.05089 -0.0094,0.02197 -0.01688,0.05294 -0.02251,0.09289 -0.0038,0.03994 -0.0056,0.08906 -0.0056,0.146994 0,0.109858 0.0094,0.188725 0.02818,0.236666 0.01875,0.04594 0.04592,0.06886 0.08153,0.06886 h 0.300799 v 1.369291 c 0,0.163796 0.016,0.305617 0.04786,0.425467 0.03185,0.119852 0.08159,0.219763 0.149075,0.299663 0.06749,0.07791 0.152666,0.135716 0.25577,0.173669 0.103114,0.03795 0.225089,0.05694 0.365689,0.05694 0.05249,0 0.103944,-0.0029 0.154561,-0.0089 0.05249,-0.006 0.100279,-0.01507 0.1434,-0.02706 0.04498,-0.01 0.08353,-0.02196 0.115399,-0.03595 0.03375,-0.01598 0.05899,-0.03291 0.07586,-0.05089 0.01688,-0.01998 0.02998,-0.053 0.03935,-0.09894 0.01124,-0.04794 0.01684,-0.115859 0.01684,-0.203749 0,-0.05592 -0.0025,-0.101773 -0.0083,-0.137723 -0.0038,-0.03596 -0.0085,-0.06402 -0.01416,-0.084 -0.0056,-0.02197 -0.01391,-0.03581 -0.02515,-0.04181 -0.0094,-0.008 -0.01977,-0.0121 -0.03101,-0.0121 -0.01314,0 -0.02815,0.0041 -0.04503,0.0121 -0.01501,0.006 -0.03466,0.01385 -0.05903,0.02383 -0.02251,0.008 -0.04871,0.01604 -0.07871,0.02403 -0.02998,0.006 -0.06372,0.0091 -0.101209,0.0091 -0.110611,0 -0.187491,-0.03611 -0.230609,-0.10802 -0.04311,-0.07391 -0.0647,-0.183735 -0.0647,-0.329552 v -1.255414 h 0.548436 c 0.03561,0 0.06279,-0.02292 0.08154,-0.06886 0.01875,-0.04794 0.02801,-0.126804 0.02801,-0.236667 0,-0.05793 -0.0025,-0.107044 -0.0083,-0.146993 -0.0038,-0.03994 -0.0103,-0.07092 -0.01966,-0.09289 -0.0094,-0.02397 -0.0217,-0.0409 -0.0367,-0.05089 -0.0131,-0.01 -0.02891,-0.01494 -0.04767,-0.01494 h -0.545626 v -0.596328 c 0,-0.01998 -0.0056,-0.03794 -0.01684,-0.05392 -0.01124,-0.01598 -0.02994,-0.02898 -0.05619,-0.03897 -0.02625,-0.01198 -0.06286,-0.01985 -0.109725,-0.02383 -0.045,-0.006 -0.102227,-0.0091 -0.171588,-0.0091 z m -24.801794,0.299663 c 0.179969,0 0.329893,0.03302 0.449872,0.09894 0.11998,0.06392 0.215561,0.155785 0.286799,0.275637 0.07311,0.117852 0.124755,0.260514 0.15475,0.428304 0.02999,0.165794 0.04503,0.350743 0.04503,0.554489 0,0.185768 -0.01599,0.361455 -0.04786,0.527248 -0.02999,0.163796 -0.08242,0.307675 -0.157398,0.431521 -0.07498,0.123845 -0.173458,0.221699 -0.295312,0.293608 -0.121853,0.07191 -0.273705,0.107831 -0.455546,0.107831 -0.181844,0 -0.332732,-0.03096 -0.45271,-0.09289 -0.11998,-0.06392 -0.215562,-0.155786 -0.286799,-0.275636 -0.07124,-0.11985 -0.121918,-0.263731 -0.151912,-0.431522 -0.02999,-0.169788 -0.04503,-0.360535 -0.04503,-0.572272 0,-0.181773 0.01503,-0.35353 0.04503,-0.515327 0.03187,-0.163797 0.08525,-0.306648 0.160236,-0.428496 0.07498,-0.121848 0.173458,-0.218671 0.295311,-0.290582 0.121854,-0.07391 0.273705,-0.110859 0.455547,-0.110859 z m 3.562842,0.353579 c -0.05249,0 -0.105095,0.0079 -0.157587,0.02383 -0.05249,0.01399 -0.104907,0.03999 -0.157399,0.07794 -0.05249,0.03795 -0.107798,0.08997 -0.165911,0.155885 -0.05812,0.06392 -0.119973,0.14587 -0.185586,0.245745 v -0.332579 c 0,-0.01998 -0.0047,-0.0371 -0.014,-0.05108 -0.0094,-0.01598 -0.02536,-0.02898 -0.04786,-0.03897 -0.02062,-0.01 -0.05068,-0.01681 -0.09005,-0.02081 -0.03937,-0.006 -0.08908,-0.0091 -0.149075,-0.0091 -0.05812,0 -0.10668,0.0031 -0.146047,0.0091 -0.0375,0.004 -0.06852,0.01085 -0.09289,0.02081 -0.02437,0.01 -0.04133,0.02299 -0.0507,0.03897 -0.0094,0.01398 -0.014,0.03111 -0.014,0.05108 v 2.672557 c 0,0.01998 0.0055,0.03794 0.01683,0.05392 0.01125,0.01399 0.03013,0.02596 0.05638,0.03595 0.02812,0.01 0.06454,0.017 0.109537,0.021 0.045,0.006 0.102228,0.0091 0.171588,0.0091 0.06936,0 0.126594,-0.0031 0.171586,-0.0091 0.045,-0.004 0.08064,-0.01096 0.10689,-0.021 0.02812,-0.01 0.04778,-0.02196 0.05903,-0.03595 0.01125,-0.01598 0.01683,-0.03394 0.01683,-0.05392 V 19.04101 c 0.05249,-0.08789 0.101242,-0.161795 0.146237,-0.22172 0.04687,-0.05992 0.09081,-0.10782 0.132048,-0.143778 0.04311,-0.03596 0.08435,-0.06196 0.123723,-0.07794 0.03937,-0.01798 0.07887,-0.02687 0.118239,-0.02687 0.03374,0 0.06458,0.004 0.0927,0.01192 0.02812,0.006 0.05356,0.01301 0.07605,0.021 0.02437,0.008 0.04577,0.01585 0.06451,0.02383 0.01875,0.006 0.0357,0.0091 0.0507,0.0091 0.01875,0 0.03378,-0.005 0.04503,-0.01494 0.01312,-0.01 0.02333,-0.02795 0.03083,-0.05392 0.0075,-0.02597 0.01328,-0.06189 0.01702,-0.107831 0.0038,-0.04595 0.0054,-0.104974 0.0054,-0.176884 0,-0.07191 -9.53e-4,-0.128882 -0.0029,-0.170831 -0.0019,-0.04195 -0.0045,-0.07291 -0.0083,-0.09289 -0.0038,-0.02197 -0.0085,-0.0389 -0.01419,-0.05089 -0.0038,-0.01198 -0.01107,-0.02292 -0.02233,-0.03291 -0.0094,-0.01 -0.02536,-0.01906 -0.04786,-0.02706 -0.02249,-0.01 -0.04871,-0.01784 -0.07869,-0.02383 -0.02999,-0.008 -0.05909,-0.01313 -0.08721,-0.01513 -0.02812,-0.004 -0.05433,-0.0059 -0.07869,-0.0059 z m 1.678791,0 c -0.110611,0 -0.218517,0.01 -0.323499,0.02989 -0.103103,0.01797 -0.198688,0.04193 -0.286799,0.07188 -0.08811,0.02997 -0.164997,0.06299 -0.230609,0.09894 -0.06562,0.03395 -0.11148,0.06595 -0.137725,0.09592 -0.02625,0.02796 -0.04416,0.05996 -0.05353,0.09591 -0.0094,0.03596 -0.014,0.08488 -0.014,0.146805 0,0.04595 0.0029,0.08785 0.0085,0.125805 0.0056,0.03795 0.01313,0.06995 0.02251,0.09592 0.01124,0.02597 0.02435,0.0458 0.03935,0.05978 0.01688,0.01398 0.03556,0.021 0.05619,0.021 0.02999,0 0.06834,-0.01384 0.115211,-0.04181 0.04874,-0.02796 0.108861,-0.05893 0.180099,-0.09289 0.07124,-0.03395 0.152753,-0.06492 0.244611,-0.09289 0.09373,-0.02796 0.19972,-0.04199 0.317824,-0.04199 0.08998,0 0.164947,0.01 0.224936,0.02989 0.06186,0.01998 0.110622,0.05094 0.146237,0.09289 0.0375,0.04195 0.0637,0.095 0.07871,0.158911 0.01688,0.06193 0.02535,0.134798 0.02535,0.218693 v 0.16175 h -0.244799 c -0.223086,0 -0.418875,0.01796 -0.587596,0.05392 -0.16872,0.03596 -0.310356,0.0919 -0.424711,0.167803 -0.11248,0.07391 -0.197657,0.168862 -0.255773,0.284718 -0.05624,0.113858 -0.08438,0.248663 -0.08438,0.404468 0,0.143821 0.02255,0.26955 0.06753,0.377416 0.045,0.107864 0.107621,0.19889 0.188236,0.272799 0.08248,0.07191 0.17903,0.125793 0.289636,0.16175 0.11248,0.03795 0.235422,0.05694 0.368524,0.05694 0.161222,0 0.307294,-0.03302 0.438521,-0.09894 0.133102,-0.06592 0.251229,-0.157784 0.354335,-0.275637 v 0.212828 c 0,0.02796 0.0075,0.04986 0.02251,0.06584 0.01688,0.01598 0.04404,0.02692 0.08153,0.03291 0.03937,0.008 0.101231,0.0121 0.185586,0.0121 0.07874,0 0.137895,-0.0041 0.177264,-0.0121 0.04124,-0.006 0.07112,-0.01694 0.08986,-0.03291 0.01875,-0.01598 0.02818,-0.03787 0.02818,-0.06584 v -1.797784 c 0,-0.183772 -0.02062,-0.342714 -0.06186,-0.476548 -0.04124,-0.133832 -0.106768,-0.24263 -0.196749,-0.326524 -0.08998,-0.08589 -0.205411,-0.148853 -0.346011,-0.188803 -0.138725,-0.04195 -0.30638,-0.06281 -0.503221,-0.06281 z m 6.77116,0 c -0.198715,0 -0.377737,0.03489 -0.537085,0.104807 -0.157472,0.06991 -0.291403,0.171884 -0.402009,0.305716 -0.1106,0.131836 -0.195009,0.293488 -0.253124,0.48525 -0.05812,0.189763 -0.08721,0.403619 -0.08721,0.641323 0,0.249688 0.02718,0.467283 0.08154,0.653052 0.05624,0.185768 0.140643,0.339564 0.253124,0.461412 0.11248,0.121847 0.252189,0.212873 0.419034,0.272799 0.168721,0.05992 0.364511,0.08986 0.587597,0.08986 0.123727,0 0.240118,-0.0091 0.34885,-0.02705 0.108728,-0.01598 0.205274,-0.03497 0.289634,-0.05695 0.08436,-0.02398 0.153545,-0.04792 0.207912,-0.07188 0.05436,-0.02398 0.08731,-0.04296 0.09856,-0.05694 0.01311,-0.01398 0.02332,-0.02783 0.03082,-0.04181 0.0075,-0.01598 0.0131,-0.03497 0.01684,-0.05694 0.0038,-0.02197 0.0066,-0.04798 0.0085,-0.07794 0.0019,-0.03196 0.0029,-0.06995 0.0029,-0.113888 0,-0.04993 -0.0019,-0.09082 -0.0056,-0.122777 -0.0019,-0.03395 -0.0065,-0.05997 -0.01399,-0.07794 -0.0075,-0.01798 -0.01696,-0.02996 -0.02818,-0.03595 -0.01124,-0.008 -0.02534,-0.01192 -0.04218,-0.01192 -0.02812,0 -0.06473,0.01 -0.109725,0.02989 -0.045,0.01797 -0.102039,0.03884 -0.171397,0.06281 -0.06749,0.02197 -0.148229,0.04302 -0.241963,0.063 -0.09373,0.01797 -0.20242,0.02706 -0.326147,0.02706 -0.121854,0 -0.226876,-0.01712 -0.314986,-0.05108 -0.08624,-0.03395 -0.157346,-0.08288 -0.213585,-0.146803 -0.05436,-0.06592 -0.09464,-0.144781 -0.120887,-0.236665 -0.02437,-0.09389 -0.0367,-0.197725 -0.0367,-0.311583 h 1.52707 c 0.06749,0 0.119905,-0.02188 0.157396,-0.06584 0.03937,-0.04394 0.05903,-0.111862 0.05903,-0.203746 v -0.119941 c 0,-0.187766 -0.02255,-0.361582 -0.06753,-0.521383 -0.045,-0.159801 -0.115143,-0.297504 -0.21075,-0.41336 -0.0956,-0.117853 -0.21855,-0.209908 -0.368522,-0.275825 -0.1481,-0.06592 -0.327122,-0.09875 -0.537086,-0.09875 z m 7.994591,0 c -0.198717,0 -0.377741,0.03489 -0.537086,0.104807 -0.157474,0.06991 -0.291593,0.171884 -0.402199,0.305716 -0.110599,0.131836 -0.19482,0.293488 -0.252933,0.48525 -0.05812,0.189763 -0.08721,0.403619 -0.08721,0.641323 0,0.249688 0.02717,0.467283 0.08154,0.653052 0.05624,0.185768 0.140643,0.339564 0.253124,0.461412 0.11248,0.121847 0.251999,0.212873 0.418844,0.272799 0.168721,0.05992 0.364699,0.08986 0.587786,0.08986 0.123726,0 0.23993,-0.0091 0.348661,-0.02705 0.108728,-0.01598 0.205276,-0.03497 0.289634,-0.05695 0.08436,-0.02398 0.153734,-0.04792 0.208099,-0.07188 0.05436,-0.02398 0.08713,-0.04296 0.09837,-0.05694 0.0131,-0.01398 0.02354,-0.02783 0.03101,-0.04181 0.0075,-0.01598 0.0131,-0.03497 0.01684,-0.05694 0.0038,-0.02197 0.0066,-0.04798 0.0085,-0.07794 0.0019,-0.03196 0.0025,-0.06995 0.0025,-0.113888 0,-0.04993 -0.0019,-0.09082 -0.0055,-0.122777 -0.0019,-0.03395 -0.0066,-0.05997 -0.01421,-0.07794 -0.0075,-0.01798 -0.01673,-0.02996 -0.02801,-0.03595 -0.01124,-0.008 -0.02529,-0.01192 -0.04218,-0.01192 -0.02812,0 -0.06473,0.01 -0.109725,0.02989 -0.045,0.01797 -0.102216,0.03884 -0.171584,0.06281 -0.06749,0.02197 -0.148042,0.04302 -0.241776,0.063 -0.09373,0.01797 -0.20242,0.02706 -0.326147,0.02706 -0.121852,0 -0.226879,-0.01712 -0.314984,-0.05108 -0.08624,-0.03395 -0.157536,-0.08288 -0.213778,-0.146803 -0.05436,-0.06592 -0.09464,-0.144781 -0.120884,-0.236665 -0.02439,-0.09389 -0.0365,-0.197725 -0.0365,-0.311583 h 1.526876 c 0.06749,0 0.120095,-0.02188 0.157589,-0.06584 0.03937,-0.04394 0.05903,-0.111862 0.05903,-0.203746 v -0.119941 c 0,-0.187766 -0.02255,-0.361582 -0.06754,-0.521383 -0.045,-0.159801 -0.115327,-0.297504 -0.210936,-0.41336 -0.0956,-0.117853 -0.218363,-0.209908 -0.368335,-0.275825 -0.148099,-0.06592 -0.32712,-0.09875 -0.537081,-0.09875 z m -11.841394,0.003 c -0.183717,0 -0.352335,0.03096 -0.506058,0.09288 -0.153724,0.06193 -0.286881,0.156688 -0.399361,0.284529 -0.11248,0.12784 -0.200547,0.289682 -0.264286,0.485438 -0.06186,0.193759 -0.09289,0.424547 -0.09289,0.692214 0,0.23171 0.02544,0.43733 0.07605,0.617107 0.05249,0.179776 0.129192,0.332542 0.230423,0.458384 0.101231,0.123847 0.225911,0.21777 0.37401,0.281691 0.149974,0.06392 0.321671,0.09592 0.514762,0.09592 0.08624,0 0.169486,-0.0081 0.250096,-0.02403 0.08248,-0.01598 0.158411,-0.03684 0.227774,-0.06281 0.06936,-0.02597 0.131221,-0.05506 0.185587,-0.08702 0.05436,-0.03395 0.0929,-0.06184 0.115399,-0.08381 0.02249,-0.02398 0.03657,-0.04296 0.04218,-0.05694 0.0075,-0.01598 0.01309,-0.036 0.01683,-0.05997 0.0056,-0.02398 0.0093,-0.05288 0.01116,-0.08683 0.0038,-0.03596 0.0056,-0.07992 0.0056,-0.13186 0,-0.06591 -0.002,-0.119801 -0.0056,-0.161749 -0.0038,-0.04195 -0.0093,-0.076 -0.01683,-0.101973 -0.0056,-0.02796 -0.01391,-0.04696 -0.02516,-0.05694 -0.01125,-0.01 -0.02532,-0.01494 -0.04219,-0.01494 -0.02437,0 -0.05443,0.01609 -0.09005,0.04805 -0.03561,0.02997 -0.07975,0.06382 -0.132236,0.101785 -0.05249,0.03795 -0.11435,0.07285 -0.185587,0.104808 -0.06936,0.02997 -0.152803,0.04503 -0.250287,0.04503 -0.09561,0 -0.179822,-0.01796 -0.252934,-0.05392 -0.07124,-0.03795 -0.131359,-0.0939 -0.1801,-0.167803 -0.04687,-0.07391 -0.08252,-0.165774 -0.10689,-0.275637 -0.02437,-0.109869 -0.03651,-0.236811 -0.03651,-0.380632 0,-0.291635 0.04875,-0.51232 0.146238,-0.662133 0.09749,-0.151811 0.238154,-0.227584 0.421871,-0.227584 0.09373,0 0.174286,0.01384 0.241774,0.04181 0.06749,0.02796 0.125683,0.05893 0.174425,0.09289 0.04874,0.03395 0.09094,0.06492 0.126561,0.09289 0.03561,0.02796 0.06935,0.04199 0.101209,0.04199 0.02999,0 0.05427,-0.02292 0.07302,-0.06886 0.01875,-0.04794 0.02819,-0.12989 0.02819,-0.245746 0,-0.04993 -0.002,-0.09185 -0.0056,-0.125806 -0.0019,-0.03596 -0.0055,-0.06589 -0.01116,-0.08986 -0.0038,-0.02397 -0.0103,-0.04296 -0.01967,-0.05694 -0.0075,-0.01598 -0.02156,-0.03497 -0.04219,-0.05694 -0.02062,-0.02197 -0.05627,-0.04797 -0.10689,-0.07794 -0.04874,-0.02997 -0.105007,-0.057 -0.168749,-0.08096 -0.06186,-0.02398 -0.129312,-0.04296 -0.202423,-0.05694 -0.07124,-0.01399 -0.144464,-0.02081 -0.219451,-0.02081 z m 13.674744,0.04786 c -0.09186,0 -0.164896,0.0031 -0.21926,0.0091 -0.05249,0.006 -0.09084,0.01591 -0.115212,0.02989 -0.02439,0.01399 -0.0367,0.034 -0.0367,0.05997 0.0019,0.02398 0.01131,0.05391 0.02818,0.08986 l 0.641132,1.234405 -0.694482,1.315373 c -0.01688,0.03395 -0.02534,0.06183 -0.02534,0.08381 0.0019,0.02197 0.01402,0.04012 0.0365,0.05411 0.02248,0.01398 0.05814,0.02287 0.10689,0.02687 0.04874,0.006 0.114264,0.0091 0.19675,0.0091 0.07874,0 0.142518,-0.0021 0.191259,-0.0061 0.04875,-0.002 0.08631,-0.007 0.112564,-0.01494 0.02812,-0.01 0.04874,-0.02093 0.06186,-0.03291 0.0131,-0.01399 0.02332,-0.03111 0.03082,-0.05108 l 0.464063,-0.949687 0.463869,0.949687 c 0.0075,0.01998 0.01791,0.0371 0.03101,0.05108 0.01501,0.01198 0.03657,0.02293 0.06471,0.03291 0.02998,0.008 0.07027,0.01295 0.120886,0.01494 0.05249,0.004 0.1209,0.0061 0.205261,0.0061 0.08998,0 0.162056,-0.0031 0.216419,-0.0091 0.05436,-0.004 0.09483,-0.01288 0.121076,-0.02687 0.02625,-0.01399 0.03935,-0.03214 0.03935,-0.05411 0.0019,-0.02197 -0.0047,-0.04985 -0.01966,-0.08381 l -0.688998,-1.336373 0.624299,-1.213405 c 0.02061,-0.03996 0.03082,-0.07195 0.03082,-0.09591 0.0019,-0.02597 -0.0083,-0.04599 -0.03082,-0.05997 -0.02061,-0.01398 -0.05627,-0.02287 -0.106889,-0.02687 -0.04874,-0.004 -0.114451,-0.0061 -0.196937,-0.0061 -0.07311,0 -0.131119,0.0021 -0.174236,0.0061 -0.04124,0.004 -0.07401,0.01 -0.09837,0.01797 -0.02439,0.008 -0.04229,0.01791 -0.05353,0.02989 -0.01124,0.01198 -0.01973,0.02601 -0.02537,0.04199 l -0.444196,0.892934 -0.447033,-0.892934 c -0.0094,-0.01997 -0.02075,-0.03607 -0.03386,-0.04805 -0.0131,-0.01399 -0.03375,-0.0239 -0.06186,-0.02989 -0.02812,-0.006 -0.06743,-0.01 -0.118049,-0.01192 -0.04874,-0.004 -0.114449,-0.0061 -0.196936,-0.0061 z M 36.4949,18.396829 c 0.178093,0 0.309324,0.0609 0.393684,0.182748 0.08624,0.119852 0.12651,0.285622 0.120887,0.497356 h -1.057332 c 0.0038,-0.09389 0.01685,-0.181819 0.03935,-0.263716 0.02438,-0.0839 0.05828,-0.155741 0.101397,-0.215667 0.045,-0.06192 0.100301,-0.11085 0.165912,-0.146804 0.06749,-0.03596 0.146113,-0.05392 0.236098,-0.05392 z m 7.99459,0 c 0.178094,0 0.309326,0.0609 0.393684,0.182748 0.08624,0.119852 0.126511,0.285622 0.120889,0.497356 H 43.94673 c 0.0038,-0.09389 0.01684,-0.181819 0.03935,-0.263716 0.02439,-0.0839 0.0581,-0.155741 0.101209,-0.215667 0.045,-0.06192 0.1003,-0.11085 0.165914,-0.146804 0.06749,-0.03596 0.146302,-0.05392 0.236287,-0.05392 z m -14.605515,1.174435 h 0.269961 v 0.455546 c -0.08624,0.103867 -0.171602,0.182733 -0.255961,0.236665 -0.08248,0.05393 -0.173441,0.08096 -0.2728,0.08096 -0.118103,0 -0.210796,-0.03199 -0.278284,-0.09592 -0.06562,-0.06392 -0.09856,-0.151858 -0.09856,-0.263719 0,-0.06591 0.01136,-0.12373 0.03386,-0.173668 0.02437,-0.05194 0.06176,-0.0959 0.112373,-0.131859 0.05062,-0.03596 0.116328,-0.06299 0.196938,-0.08096 0.08061,-0.01798 0.178118,-0.02706 0.292473,-0.02706 z m -1.966346,3.274719 c -0.07052,0 -0.128682,0.0031 -0.174424,0.0091 -0.04574,0.006 -0.08284,0.01487 -0.111428,0.02687 -0.02669,0.01 -0.04569,0.02299 -0.05713,0.03897 -0.0095,0.01598 -0.01439,0.03394 -0.01439,0.05392 v 1.447235 c -0.114355,-0.117855 -0.229751,-0.206632 -0.346012,-0.266557 -0.116261,-0.06192 -0.245823,-0.09289 -0.388766,-0.09289 -0.181062,0 -0.341199,0.03593 -0.480331,0.107831 -0.139131,0.07191 -0.25527,0.17472 -0.34866,0.308554 -0.09339,0.133833 -0.164977,0.295674 -0.21453,0.485438 -0.04765,0.189764 -0.07132,0.40343 -0.07132,0.641133 0,0.197754 0.01901,0.386631 0.05713,0.566407 0.03812,0.177779 0.09908,0.333632 0.182937,0.467466 0.08577,0.133834 0.195383,0.240571 0.328797,0.320473 0.13532,0.0779 0.300116,0.116913 0.494519,0.116913 0.175345,0 0.334548,-0.04087 0.477493,-0.122778 0.144848,-0.08189 0.282987,-0.196872 0.414495,-0.344687 v 0.296635 c 0,0.02197 0.0049,0.04096 0.01437,0.05694 0.01144,0.01399 0.02859,0.02596 0.05146,0.03595 0.02477,0.01 0.05609,0.017 0.09421,0.021 0.03812,0.004 0.08771,0.0061 0.148696,0.0061 0.05718,0 0.104908,-0.0021 0.143021,-0.0061 0.04002,-0.004 0.07134,-0.01096 0.09421,-0.021 0.02287,-0.01 0.03909,-0.02196 0.04862,-0.03595 0.0095,-0.01598 0.01437,-0.03497 0.01437,-0.05694 v -3.931194 c 0,-0.01998 -0.0058,-0.03794 -0.01722,-0.05392 -0.01144,-0.01598 -0.03045,-0.02898 -0.05713,-0.03897 -0.02668,-0.01198 -0.06285,-0.02088 -0.108595,-0.02687 -0.04574,-0.006 -0.1039,-0.0091 -0.174424,-0.0091 z m 11.824369,0.09289 c -0.162005,0 -0.272551,0.03012 -0.331634,0.09005 -0.05718,0.05793 -0.08589,0.162796 -0.08589,0.314608 0,0.145819 0.02761,0.24657 0.08286,0.3025 0.05718,0.05593 0.166792,0.084 0.328797,0.084 0.160098,0 0.269711,-0.02909 0.328794,-0.08702 0.05908,-0.05793 0.08873,-0.162797 0.08873,-0.314609 0,-0.145818 -0.0287,-0.246568 -0.08589,-0.3025 -0.05718,-0.05793 -0.165673,-0.08702 -0.325767,-0.08702 z M 23.35194,23.130701 c -0.06289,0 -0.116211,0.02002 -0.160046,0.05997 -0.04193,0.03795 -0.06281,0.10091 -0.06281,0.1888 v 3.379716 c 0,0.08789 0.02088,0.151879 0.06281,0.19183 0.04383,0.03795 0.09716,0.05695 0.160046,0.05695 h 1.858324 c 0.01715,0 0.03244,-0.0051 0.04578,-0.01514 0.01525,-0.01198 0.02755,-0.02994 0.03708,-0.05392 0.0095,-0.02398 0.01625,-0.05493 0.02006,-0.09289 0.0058,-0.03996 0.0085,-0.08887 0.0085,-0.146805 0,-0.05793 -0.0028,-0.105827 -0.0085,-0.143777 -0.0038,-0.03996 -0.01052,-0.07195 -0.02006,-0.09592 -0.0095,-0.02398 -0.02183,-0.0409 -0.03708,-0.05089 -0.01334,-0.01198 -0.02863,-0.01797 -0.04578,-0.01797 H 23.878051 V 25.297 h 1.11787 c 0.01715,0 0.03225,-0.005 0.04559,-0.01494 0.01525,-0.01 0.02774,-0.02608 0.03727,-0.04805 0.0095,-0.02397 0.01625,-0.05493 0.02005,-0.09289 0.0058,-0.03795 0.0085,-0.08585 0.0085,-0.143778 0,-0.05592 -0.0028,-0.102792 -0.0085,-0.140751 -0.0038,-0.03994 -0.01052,-0.07091 -0.02005,-0.09289 -0.0095,-0.02396 -0.02202,-0.0409 -0.03727,-0.05089 -0.01334,-0.01198 -0.02844,-0.01797 -0.04559,-0.01797 h -1.11787 v -0.946849 h 1.320861 c 0.01716,0 0.03225,-0.005 0.04559,-0.01494 0.01334,-0.01198 0.0249,-0.03013 0.03443,-0.05411 0.0095,-0.02398 0.01606,-0.05494 0.01987,-0.09289 0.0058,-0.03996 0.0087,-0.08785 0.0087,-0.143779 0,-0.05992 -0.003,-0.10885 -0.0087,-0.146803 -0.0038,-0.03996 -0.0103,-0.07195 -0.01987,-0.09591 -0.0095,-0.02597 -0.02109,-0.04393 -0.03443,-0.05392 -0.01335,-0.01 -0.02844,-0.01494 -0.04559,-0.01494 z m 14.520195,0.278665 c -0.06862,0 -0.126586,0.0031 -0.174236,0.0091 -0.04575,0.004 -0.08302,0.01185 -0.111616,0.02383 -0.02669,0.01 -0.0457,0.02299 -0.05713,0.03897 -0.0095,0.01598 -0.01439,0.03394 -0.01439,0.05392 v 0.596297 h -0.302879 c -0.01906,0 -0.03621,0.005 -0.05145,0.01494 -0.01334,0.01 -0.02491,0.02692 -0.03443,0.05089 -0.0095,0.02197 -0.01718,0.05294 -0.02289,0.09289 -0.0038,0.03995 -0.0056,0.08887 -0.0056,0.146803 0,0.109869 0.0095,0.188915 0.02856,0.236856 0.01906,0.04595 0.04665,0.06886 0.08286,0.06886 h 0.305905 v 1.369292 c 0,0.163796 0.01622,0.305616 0.04862,0.425468 0.03239,0.119851 0.08291,0.219762 0.151534,0.299661 0.06862,0.07791 0.155298,0.135716 0.260122,0.173669 0.104831,0.03795 0.228795,0.05694 0.371741,0.05694 0.05337,0 0.105749,-0.0029 0.157208,-0.0089 0.05337,-0.006 0.102018,-0.01507 0.145857,-0.02705 0.04575,-0.01 0.08583,-0.02196 0.120131,-0.03595 0.03431,-0.01598 0.06003,-0.03394 0.07719,-0.05392 0.01716,-0.02197 0.03039,-0.05481 0.03991,-0.09875 0.0095,-0.04595 0.01438,-0.113018 0.01438,-0.200909 0,-0.05594 -0.0029,-0.101774 -0.0087,-0.137723 -0.0038,-0.03596 -0.0085,-0.06402 -0.01421,-0.084 -0.0058,-0.02197 -0.01428,-0.03581 -0.02574,-0.04181 -0.0095,-0.008 -0.01999,-0.0121 -0.03141,-0.0121 -0.01336,0 -0.02863,0.0041 -0.04578,0.0121 -0.01526,0.006 -0.03536,0.01385 -0.06016,0.02383 -0.02288,0.008 -0.04952,0.01604 -0.08002,0.02403 -0.0305,0.006 -0.0648,0.0091 -0.102914,0.0091 -0.112448,0 -0.19056,-0.03611 -0.234395,-0.108019 -0.04383,-0.07391 -0.06584,-0.183734 -0.06584,-0.329553 v -1.255409 h 1.146435 v 2.163284 c 0,0.01998 0.0058,0.03794 0.01721,0.05392 0.01142,0.01399 0.03045,0.02596 0.05713,0.03595 0.02669,0.01 0.06303,0.017 0.108783,0.021 0.04765,0.006 0.106558,0.0091 0.177073,0.0091 0.06862,0 0.125846,-0.0031 0.171589,-0.0091 0.04764,-0.004 0.08494,-0.01096 0.111616,-0.021 0.02669,-0.01 0.0457,-0.02196 0.05713,-0.03595 0.01142,-0.01598 0.01702,-0.03394 0.01702,-0.05392 V 24.34128 c 0,-0.06792 -0.01604,-0.11993 -0.04843,-0.155884 -0.0305,-0.03596 -0.08586,-0.05392 -0.165911,-0.05392 H 38.23236 V 23.53521 c 0,-0.01998 -0.0056,-0.03794 -0.01702,-0.05392 -0.01142,-0.01598 -0.03045,-0.02898 -0.05713,-0.03897 -0.02669,-0.01198 -0.06397,-0.01985 -0.111617,-0.02383 -0.04574,-0.006 -0.103911,-0.0091 -0.174421,-0.0091 z m -2.269792,0.653241 c -0.112448,0 -0.222064,0.01 -0.328796,0.02989 -0.10483,0.01798 -0.202138,0.04193 -0.291717,0.07189 -0.08958,0.02997 -0.167688,0.06299 -0.234394,0.09894 -0.0667,0.03395 -0.113311,0.06595 -0.139995,0.09592 -0.02669,0.02796 -0.04476,0.05996 -0.0543,0.09591 -0.0095,0.03596 -0.01437,0.08488 -0.01437,0.146806 0,0.04595 0.0028,0.08785 0.0085,0.125806 0.0058,0.03795 0.01337,0.06995 0.02289,0.09592 0.01144,0.02597 0.02486,0.0458 0.04011,0.05978 0.01715,0.01399 0.03617,0.021 0.05713,0.021 0.0305,1e-6 0.06965,-0.01403 0.117292,-0.04199 0.04956,-0.02796 0.110511,-0.05874 0.182938,-0.0927 0.07243,-0.03395 0.155194,-0.06492 0.248583,-0.09289 0.0953,-0.02796 0.203049,-0.04199 0.323121,-0.04199 0.09148,0 0.16773,0.01 0.22872,0.02989 0.06289,0.01998 0.112483,0.05094 0.148695,0.09289 0.03812,0.04195 0.06478,0.095 0.08002,0.158912 0.01715,0.06193 0.02573,0.134797 0.02573,0.218694 v 0.161749 h -0.248773 c -0.226804,0 -0.425899,0.01796 -0.597432,0.05392 -0.171533,0.03596 -0.31545,0.0919 -0.431712,0.167803 -0.114354,0.07391 -0.20104,0.168862 -0.260123,0.284718 -0.05718,0.113858 -0.08589,0.248662 -0.08589,0.404469 0,0.14382 0.02294,0.269549 0.06867,0.377416 0.04575,0.107864 0.109681,0.19889 0.191641,0.272798 0.08386,0.07191 0.181917,0.125794 0.294365,0.161749 0.114356,0.03795 0.239259,0.05694 0.374579,0.05694 0.163908,0 0.312485,-0.03302 0.445899,-0.09894 0.13532,-0.06592 0.255375,-0.157784 0.3602,-0.275637 v 0.212829 c 0,0.02796 0.0076,0.04986 0.02289,0.06584 0.01715,0.01598 0.04493,0.02692 0.08305,0.03291 0.04002,0.008 0.102848,0.0121 0.188613,0.0121 0.08005,0 0.140077,-0.0041 0.180102,-0.0121 0.04193,-0.006 0.0725,-0.01693 0.09156,-0.03291 0.01906,-0.01598 0.02856,-0.03787 0.02856,-0.06584 v -1.797786 c 0,-0.183772 -0.02106,-0.342713 -0.06299,-0.476546 -0.04193,-0.133833 -0.108673,-0.242631 -0.200154,-0.326526 -0.09149,-0.08589 -0.208554,-0.148853 -0.351498,-0.188803 -0.141038,-0.04195 -0.311613,-0.06281 -0.511735,-0.06281 z m 6.460901,0 c -0.234428,0 -0.439304,0.03695 -0.614646,0.11086 -0.173442,0.07391 -0.318288,0.178776 -0.434549,0.314607 -0.116262,0.133834 -0.203878,0.295674 -0.262961,0.485439 -0.05718,0.187766 -0.0857,0.395443 -0.0857,0.623161 0,0.235706 0.02666,0.445445 0.08002,0.629215 0.05337,0.183772 0.135204,0.338595 0.245747,0.464439 0.110544,0.125843 0.249804,0.221637 0.417523,0.287556 0.167719,0.06592 0.364952,0.09894 0.591757,0.09894 0.234428,0 0.439305,-0.03695 0.614646,-0.11086 0.175345,-0.07391 0.321128,-0.178776 0.437387,-0.314607 0.116262,-0.135831 0.202948,-0.297672 0.260126,-0.485438 0.05718,-0.187767 0.08589,-0.395446 0.08589,-0.623162 0,-0.237705 -0.02683,-0.448471 -0.08021,-0.632243 -0.05337,-0.18377 -0.135203,-0.338595 -0.245747,-0.464438 -0.10864,-0.125844 -0.246775,-0.220797 -0.414494,-0.284717 -0.167719,-0.06592 -0.366073,-0.09875 -0.594786,-0.09875 z m 3.405069,0 c -0.158194,0 -0.310688,0.03984 -0.457441,0.119751 -0.14485,0.0799 -0.287836,0.199832 -0.428875,0.359633 v -0.308744 c 0,-0.01998 -0.0049,-0.03691 -0.01439,-0.05089 -0.0095,-0.01598 -0.02574,-0.02898 -0.04862,-0.03897 -0.02097,-0.01 -0.05135,-0.01701 -0.09137,-0.021 -0.04003,-0.006 -0.09054,-0.0089 -0.151534,-0.0089 -0.05909,0 -0.108673,0.0029 -0.148698,0.0089 -0.03812,0.004 -0.06962,0.01096 -0.0944,0.021 -0.02478,0.01 -0.04193,0.02299 -0.05146,0.03897 -0.0095,0.01398 -0.01416,0.03091 -0.01416,0.05089 v 2.672748 c 0,0.01998 0.0058,0.03794 0.01721,0.05392 0.01142,0.01399 0.03046,0.02596 0.05713,0.03594 0.02859,0.01 0.06568,0.017 0.11143,0.021 0.04575,0.006 0.103911,0.0091 0.174426,0.0091 0.07052,0 0.128679,-0.0031 0.174422,-0.0091 0.04575,-0.004 0.08191,-0.01096 0.108595,-0.021 0.02859,-0.01 0.04853,-0.02196 0.05997,-0.03594 0.01142,-0.01598 0.01721,-0.03394 0.01721,-0.05392 v -1.776787 c 0.10101,-0.133834 0.198142,-0.235614 0.291531,-0.305527 0.09339,-0.06991 0.185855,-0.104996 0.27734,-0.104996 0.07243,0 0.135434,0.01506 0.188802,0.04503 0.05527,0.02796 0.100012,0.06885 0.134317,0.122779 0.0343,0.05194 0.06003,0.114894 0.07719,0.188804 0.01907,0.07391 0.02855,0.175688 0.02855,0.305525 V 26.906 c 0,0.01998 0.0058,0.03794 0.01721,0.05392 0.01142,0.01399 0.03045,0.02596 0.05713,0.03594 0.02669,0.01 0.06285,0.017 0.108584,0.021 0.04765,0.006 0.106746,0.0091 0.177263,0.0091 0.06862,0 0.125846,-0.0031 0.171589,-0.0091 0.04764,-0.004 0.08474,-0.01096 0.111426,-0.021 0.02669,-0.01 0.04588,-0.02196 0.05732,-0.03594 0.01142,-0.01598 0.01702,-0.03394 0.01702,-0.05392 v -1.650981 c 0,-0.193759 -0.01621,-0.359528 -0.04862,-0.497357 -0.03239,-0.137828 -0.08572,-0.257571 -0.160046,-0.359443 -0.07243,-0.103867 -0.16862,-0.18582 -0.288692,-0.245746 -0.118166,-0.05992 -0.263946,-0.08986 -0.437383,-0.08986 z m -12.198947,0.003 c -0.186779,0 -0.358287,0.03096 -0.514572,0.09289 -0.156285,0.06192 -0.291627,0.156687 -0.405982,0.284527 -0.114354,0.127842 -0.203835,0.289681 -0.268637,0.485438 -0.06289,0.193759 -0.0944,0.424546 -0.0944,0.692214 0,0.231711 0.02573,0.43733 0.07719,0.617106 0.05337,0.179777 0.131476,0.332543 0.234395,0.458385 0.102914,0.123846 0.229687,0.21777 0.380253,0.281692 0.152473,0.06392 0.326966,0.09591 0.523275,0.09591 0.08767,0 0.172493,-0.0081 0.254448,-0.02402 0.08387,-0.01598 0.161039,-0.03684 0.231557,-0.06281 0.07052,-0.02597 0.133343,-0.05506 0.188614,-0.08702 0.05527,-0.03395 0.09442,-0.06184 0.117292,-0.08381 0.02287,-0.02398 0.03703,-0.04296 0.04276,-0.05694 0.0076,-0.01598 0.0134,-0.036 0.01722,-0.05997 0.0058,-0.02398 0.0094,-0.05288 0.01135,-0.08683 0.0038,-0.03596 0.0059,-0.07992 0.0059,-0.131859 0,-0.06592 -0.0021,-0.119802 -0.0059,-0.16175 -0.0038,-0.04195 -0.0094,-0.076 -0.01702,-0.101972 -0.0058,-0.02796 -0.0143,-0.04696 -0.02573,-0.05695 -0.01144,-0.01 -0.02579,-0.01494 -0.04295,-0.01494 -0.02477,0 -0.05535,0.01609 -0.09156,0.04805 -0.03621,0.02997 -0.08095,0.06383 -0.134319,0.101784 -0.05337,0.03795 -0.116189,0.07285 -0.188613,0.104808 -0.07052,0.02997 -0.15534,0.04503 -0.254448,0.04503 -0.0972,0 -0.182956,-0.01796 -0.257286,-0.05392 -0.07243,-0.03795 -0.133384,-0.0939 -0.182937,-0.167803 -0.04765,-0.07391 -0.084,-0.165774 -0.108784,-0.275637 -0.02477,-0.109858 -0.03708,-0.23681 -0.03708,-0.380632 0,-0.291637 0.04959,-0.512318 0.148696,-0.662133 0.0991,-0.15181 0.242092,-0.227584 0.428873,-0.227584 0.0953,0 0.177132,0.01384 0.245746,0.04181 0.06862,0.02796 0.127708,0.05893 0.177262,0.09289 0.04956,0.03395 0.09243,0.06492 0.128642,0.09289 0.03621,0.02796 0.07051,0.04199 0.102914,0.04199 0.0305,0 0.0553,-0.02292 0.07435,-0.06886 0.01906,-0.04794 0.02857,-0.129891 0.02857,-0.245746 0,-0.04994 -0.0019,-0.09185 -0.0056,-0.125805 -0.0019,-0.03596 -0.0056,-0.06589 -0.01135,-0.08986 -0.0038,-0.02398 -0.01052,-0.04296 -0.02005,-0.05694 -0.0076,-0.01598 -0.02198,-0.03497 -0.04295,-0.05695 -0.02096,-0.02197 -0.05713,-0.04798 -0.108595,-0.07794 -0.04956,-0.02997 -0.10679,-0.057 -0.171588,-0.08098 -0.06289,-0.02397 -0.131497,-0.04296 -0.205828,-0.05694 -0.07243,-0.01399 -0.146808,-0.02081 -0.223044,-0.02081 z m -3.927961,0.04786 c -0.06862,0 -0.126778,0.0029 -0.174425,0.0089 -0.04574,0.004 -0.08302,0.01096 -0.111617,0.021 -0.02668,0.01 -0.04569,0.02299 -0.05713,0.03897 -0.0095,0.01397 -0.01419,0.03091 -0.01419,0.05089 v 1.636035 c 0,0.203747 0.0151,0.374473 0.04559,0.512302 0.0324,0.135832 0.08497,0.255762 0.157398,0.359633 0.07433,0.103866 0.170524,0.18582 0.288691,0.245746 0.120072,0.05992 0.267718,0.08986 0.443061,0.08986 0.156285,0 0.306914,-0.04005 0.451764,-0.11994 0.146755,-0.0799 0.290673,-0.199643 0.43171,-0.359444 v 0.308554 c 0,0.01998 0.0047,0.03794 0.01419,0.05392 0.0095,0.01399 0.02575,0.02596 0.04862,0.03595 0.02287,0.01 0.05344,0.01701 0.09156,0.021 0.04002,0.006 0.09147,0.0091 0.154371,0.0091 0.05908,0 0.107743,-0.0031 0.14586,-0.0091 0.04002,-0.004 0.07134,-0.01096 0.09421,-0.021 0.02477,-0.01 0.04193,-0.02196 0.05146,-0.03595 0.0095,-0.01598 0.01438,-0.03394 0.01438,-0.05392 v -2.672746 c 0,-0.01998 -0.0058,-0.03691 -0.01722,-0.05089 -0.01144,-0.01598 -0.03045,-0.02898 -0.05713,-0.03897 -0.02668,-0.01 -0.06285,-0.017 -0.108584,-0.021 -0.04574,-0.006 -0.103911,-0.0089 -0.174425,-0.0089 -0.07052,0 -0.128682,0.0029 -0.174424,0.0089 -0.04574,0.004 -0.08284,0.01096 -0.111428,0.021 -0.02669,0.01 -0.04588,0.02299 -0.05732,0.03897 -0.0095,0.01398 -0.01419,0.03091 -0.01419,0.05089 v 1.776975 c -0.104819,0.133833 -0.204001,0.235614 -0.297391,0.305527 -0.09149,0.06991 -0.182828,0.104807 -0.274313,0.104807 -0.07243,0 -0.136368,-0.01384 -0.191639,-0.04181 -0.05337,-0.02997 -0.09811,-0.07103 -0.134319,-0.122968 -0.03431,-0.05393 -0.06003,-0.117732 -0.07719,-0.191641 -0.01715,-0.07391 -0.02573,-0.180835 -0.02573,-0.320661 v -1.510101 c 0,-0.01998 -0.0058,-0.03691 -0.01721,-0.05089 -0.01144,-0.01598 -0.03139,-0.02898 -0.05997,-0.03897 -0.02669,-0.01 -0.06304,-0.017 -0.108784,-0.021 -0.04574,-0.006 -0.103711,-0.0089 -0.174235,-0.0089 z m 12.696111,0.54522 c 0.120072,0 0.219249,0.02311 0.297394,0.06905 0.08005,0.04595 0.143993,0.109748 0.191639,0.19164 0.04764,0.08189 0.08083,0.17891 0.09989,0.290771 0.02097,0.109869 0.0316,0.230634 0.0316,0.36247 0,0.141824 -0.01248,0.268772 -0.03726,0.380632 -0.02479,0.109858 -0.0628,0.203598 -0.114268,0.281501 -0.05146,0.0779 -0.117264,0.137964 -0.197313,0.179911 -0.08005,0.03994 -0.174378,0.05978 -0.283015,0.05978 -0.118166,0 -0.217345,-0.02188 -0.297394,-0.06584 -0.08005,-0.04595 -0.143803,-0.109935 -0.19145,-0.191829 -0.04575,-0.08189 -0.07912,-0.177692 -0.100079,-0.287555 -0.02097,-0.111861 -0.03141,-0.23366 -0.03141,-0.365497 0,-0.141824 0.0123,-0.267741 0.03708,-0.377605 0.02669,-0.111861 0.06584,-0.206814 0.117294,-0.284717 0.05146,-0.0799 0.117079,-0.139772 0.197128,-0.179721 0.08004,-0.04195 0.173444,-0.063 0.280174,-0.063 z m -15.069005,0.04199 c 0.102914,0 0.200974,0.03592 0.294364,0.107831 0.0953,0.07191 0.194473,0.175939 0.297393,0.31177 v 0.88688 c -0.06099,0.0799 -0.11729,0.147816 -0.16875,0.203747 -0.05146,0.05393 -0.101984,0.0979 -0.151533,0.131858 -0.04765,0.03396 -0.09519,0.05875 -0.142832,0.07473 -0.04575,0.01398 -0.09347,0.021 -0.14302,0.021 -0.09911,0 -0.180946,-0.02498 -0.245746,-0.07492 -0.0648,-0.04993 -0.117375,-0.115796 -0.157399,-0.197694 -0.03812,-0.0839 -0.0657,-0.178848 -0.08286,-0.284717 -0.01715,-0.105871 -0.02573,-0.214666 -0.02573,-0.326526 0,-0.105871 0.0095,-0.208677 0.02856,-0.308554 0.02096,-0.101873 0.05154,-0.193738 0.09156,-0.275636 0.04193,-0.08189 0.09618,-0.146916 0.162884,-0.194856 0.06862,-0.04993 0.149708,-0.07492 0.243098,-0.07492 z m 8.779503,1.069639 h 0.2745 v 0.455546 c -0.08768,0.103867 -0.174357,0.182733 -0.260124,0.236665 -0.08385,0.05393 -0.176325,0.08097 -0.277338,0.08097 -0.120073,0 -0.214402,-0.03199 -0.283015,-0.09592 -0.0667,-0.06392 -0.100079,-0.151857 -0.100079,-0.263719 0,-0.06591 0.01137,-0.123729 0.03424,-0.173667 0.02477,-0.05194 0.06299,-0.0959 0.114454,-0.131859 0.05146,-0.03596 0.118199,-0.06299 0.200154,-0.08097 0.08195,-0.01797 0.180942,-0.02705 0.297203,-0.02705 z" />
  </g>
</svg>
