<svg width="283" height="422" viewBox="0 0 283 422" fill="none" xmlns="http://www.w3.org/2000/svg">
<g filter="url(#filter0_d_49_478)">
<path fill-rule="evenodd" clip-rule="evenodd" d="M210.522 207.949C210.14 210.395 209.209 212.723 207.8 214.758C206.391 216.793 204.54 218.484 202.385 219.702C198.045 222.505 194.247 223.906 190.405 225.308C182.223 228.133 173.611 230.959 164.502 234.236C154.895 237.513 146.284 240.791 138.599 243.164C129.015 246.442 119.906 249.267 111.249 252.544C104.736 255.332 98.6179 258.964 93.0533 263.349C87.878 268.038 83.3616 273.406 79.627 279.307C75.7845 285.861 73.366 294.315 73.366 304.17C73.366 323.902 78.1578 338.911 87.7642 348.291C97.3479 358.169 115.114 362.848 141.447 362.848C168.299 362.848 186.517 357.694 196.146 347.365C205.707 337.035 210.499 322.501 210.499 303.741V207.949H210.522ZM141.469 0C188.484 0 222.999 8.92822 245.037 27.2367C267.097 45.0932 278.128 68.058 278.128 95.2721V327.18C278.128 336.56 276.229 346.89 272.884 358.146C269.493 369.448 262.803 379.755 252.247 389.112C242.189 398.538 228.288 406.517 210.544 412.62C192.801 418.723 169.791 422 141.492 422C113.238 422 90.1827 418.723 72.4619 412.62C54.741 406.517 40.8175 398.538 30.7591 389.112C21.4021 380.68 14.3138 370.032 10.1451 358.146C6.75464 346.912 4.83337 336.583 4.83337 327.203V290.133C4.83337 270.401 10.0999 252.092 20.6555 236.112C31.2112 219.702 46.0614 208.446 65.2515 201.394C74.8352 198.116 85.8655 194.839 98.3198 190.612C110.797 186.363 122.279 182.136 133.807 178.406C145.334 174.632 155.393 170.857 164.004 167.557C169.201 165.478 174.48 163.607 179.827 161.951L188.461 157.724C191.851 155.848 195.174 153.023 198.542 149.271C201.887 145.541 204.758 141.315 207.176 136.613C209.732 131.522 211.048 125.9 211.019 120.203V105.172C211.054 99.6633 209.898 94.2119 207.628 89.1919C205.73 83.5411 201.887 78.3876 196.621 73.7087C191.354 69.0073 184.144 65.2552 175.532 62.4072C166.898 59.627 155.415 58.203 142.441 58.203C115.589 58.203 97.8452 63.4017 88.2614 74.1608C80.1243 83.5637 75.3325 95.2947 74.3831 108.427C74.3831 111.252 71.9872 113.129 69.094 113.129L10.6198 114.078C9.23076 114.084 7.89559 113.541 6.90498 112.567C5.91436 111.594 5.34851 110.268 5.33064 108.879V95.3173C5.33064 82.1397 7.74917 69.934 13.0157 58.203C18.3048 46.4494 26.4645 36.617 37.4723 28.1409C48.5026 19.7099 62.9007 12.6803 80.1469 7.9789C96.941 2.32812 117.555 0 141.514 0H141.469Z" fill="#0A3871"/>
</g>
<defs>
<filter id="filter0_d_49_478" x="0.833374" y="0" width="281.294" height="430" filterUnits="userSpaceOnUse" color-interpolation-filters="sRGB">
<feFlood flood-opacity="0" result="BackgroundImageFix"/>
<feColorMatrix in="SourceAlpha" type="matrix" values="0 0 0 0 0 0 0 0 0 0 0 0 0 0 0 0 0 0 127 0" result="hardAlpha"/>
<feOffset dy="4"/>
<feGaussianBlur stdDeviation="2"/>
<feComposite in2="hardAlpha" operator="out"/>
<feColorMatrix type="matrix" values="0 0 0 0 0 0 0 0 0 0 0 0 0 0 0 0 0 0 0.25 0"/>
<feBlend mode="normal" in2="BackgroundImageFix" result="effect1_dropShadow_49_478"/>
<feBlend mode="normal" in="SourceGraphic" in2="effect1_dropShadow_49_478" result="shape"/>
</filter>
</defs>
</svg>
