<?xml version="1.0" encoding="UTF-8" standalone="no"?>
<svg
   width="842.72998"
   height="573"
   viewBox="0 0 842.72998 573"
   role="img"
   artist="Katerina Limpitsouni"
   source="https://undraw.co/"
   version="1.1"
   id="svg21"
   sodipodi:docname="undraw_personal-text_090t.svg"
   inkscape:version="1.3.2 (091e20e, 2023-11-25, custom)"
   xmlns:inkscape="http://www.inkscape.org/namespaces/inkscape"
   xmlns:sodipodi="http://sodipodi.sourceforge.net/DTD/sodipodi-0.dtd"
   xmlns="http://www.w3.org/2000/svg"
   xmlns:svg="http://www.w3.org/2000/svg">
  <defs
     id="defs21" />
  <sodipodi:namedview
     id="namedview21"
     pagecolor="#ffffff"
     bordercolor="#000000"
     borderopacity="0.25"
     inkscape:showpageshadow="2"
     inkscape:pageopacity="0.0"
     inkscape:pagecheckerboard="true"
     inkscape:deskcolor="#d1d1d1"
     inkscape:export-bgcolor="#ffffff00"
     inkscape:clip-to-page="false"
     inkscape:zoom="0.85317957"
     inkscape:cx="421.95103"
     inkscape:cy="286.57508"
     inkscape:window-width="1920"
     inkscape:window-height="1009"
     inkscape:window-x="1912"
     inkscape:window-y="-8"
     inkscape:window-maximized="1"
     inkscape:current-layer="svg21" />
  <path
     d="m 778.01899,559.40511 c -18.90064,13.616 -43.39446,14.29971 -67.07038,12.627 -3.306,-0.23326 -6.58868,-0.507 -9.84091,-0.80228 -0.0197,-0.005 -0.0454,-0.003 -0.0654,-0.008 -0.15629,-0.0149 -0.3129,-0.0298 -0.46245,-0.0386 -0.67126,-0.0628 -1.34284,-0.12554 -2.0078,-0.18875 l 0.15708,0.29974 0.493,0.93009 c -0.17718,-0.31128 -0.35423,-0.6161 -0.53141,-0.92739 -0.0521,-0.0934 -0.11053,-0.18646 -0.16233,-0.28 -6.13337,-10.67317 -12.21659,-21.73842 -13.76829,-33.926 -1.6039,-12.65015 2.9037,-26.9743 14.03727,-33.19189 a 22.467,22.467 0 0 1 4.61018,-1.93081 c 0.66586,-0.20234 1.34073,-0.36645 2.02325,-0.5117 A 24.081,24.081 0 0 1 733.43521,532.76 c 9.43927,-9.67911 7.67846,-25.38108 4.42236,-38.504 -3.26239,-13.12256 -7.21179,-27.72486 -0.57639,-39.51162 3.68851,-6.56063 10.175,-10.63106 17.45435,-12.27081 0.22331,-0.0482 0.44631,-0.0962 0.67008,-0.13789 a 35.14393,35.14393 0 0 1 25.249,4.42406 c 13.91882,8.77112 21.06772,25.40139 23.38793,41.69208 3.73834,26.21472 -4.53461,55.47118 -26.02355,70.95329 z"
     fill="#f2f2f2"
     id="path1"
     style="fill:#4ca13e;fill-opacity:1" />
  <path
     d="m 771.91667,517.38193 a 59.74248,59.74248 0 0 1 -4.12321,16.83544 51.87511,51.87511 0 0 1 -8.05438,13.156 66.46538,66.46538 0 0 1 -25.53063,18.40893 95.65939,95.65939 0 0 1 -23.25985,6.24981 c -3.306,-0.23326 -6.58868,-0.507 -9.84091,-0.80228 -0.0197,-0.005 -0.0454,-0.003 -0.0654,-0.008 -0.15629,-0.0149 -0.3129,-0.0298 -0.46245,-0.0386 -0.67126,-0.0628 -1.34284,-0.12554 -2.0078,-0.18875 l 0.15708,0.29974 0.493,0.93009 c -0.17718,-0.31128 -0.35423,-0.6161 -0.53141,-0.92739 -0.0521,-0.0934 -0.11053,-0.18646 -0.16233,-0.28 a 52.87823,52.87823 0 0 0 14.81951,-46.25623 53.33113,53.33113 0 0 0 -9.94035,-22.79246 c 0.66586,-0.20234 1.34073,-0.36645 2.02325,-0.5117 a 55.29272,55.29272 0 0 1 5.04382,8.35406 54.17979,54.17979 0 0 1 4.67445,33.70568 55.393,55.393 0 0 1 -14.03439,27.62923 c 0.63145,-0.0445 1.269,-0.0959 1.893,-0.15286 11.81832,-1.00128 23.61258,-3.542 34.33191,-8.74615 A 61.83274,61.83274 0 0 0 760.5032,543.24 c 6.492,-8.95336 9.35272,-19.723 9.84414,-30.6688 a 129.42851,129.42851 0 0 0 -3.67377,-35.0389 147.06843,147.06843 0 0 0 -12.35789,-33.6628 1.0574,1.0574 0 0 1 0.41985,-1.39591 0.89934,0.89934 0 0 1 0.67008,-0.13789 0.78294,0.78294 0 0 1 0.51687,0.44275 c 0.67566,1.3187 1.33875,2.63828 1.97662,3.97261 a 148.73787,148.73787 0 0 1 11.64367,34.92405 c 2.34933,11.65213 3.60329,23.84128 2.3739,35.70682 z"
     fill="#ffffff"
     id="path2" />
  <path
     d="m 57.15979,192.126 a 4.53477,4.53477 0 0 1 -1.64453,-0.31055 4.47489,4.47489 0 0 1 -2.87,-4.19629 v -47.0332 a 6.01164,6.01164 0 0 0 -6.00464,-6.00489 H 37.00928 A 15.02614,15.02614 0 0 1 21.99999,119.57178 V 25.00928 A 15.02614,15.02614 0 0 1 37.00928,10 h 339.72534 a 15.02615,15.02615 0 0 1 15.00928,15.00928 v 94.5625 a 15.02615,15.02615 0 0 1 -15.00928,15.00927 H 114.51499 a 6.02074,6.02074 0 0 0 -4.42651,1.94727 l -49.62183,54.1333 A 4.47614,4.47614 0 0 1 57.15979,192.126 Z M 37.00928,12 A 13.024,13.024 0 0 0 23.99999,25.00928 v 94.5625 a 13.024,13.024 0 0 0 13.00928,13.00927 h 9.63134 a 8.01371,8.01371 0 0 1 8.00464,8.00489 v 47.0332 a 2.50251,2.50251 0 0 0 4.34717,1.69092 l 49.62183,-54.1333 a 8.02556,8.02556 0 0 1 5.90075,-2.59571 H 376.73462 A 13.024,13.024 0 0 0 389.7439,119.57178 V 25.00928 A 13.024,13.024 0 0 0 376.73462,12 Z"
     fill="#ccc"
     id="path3"
     style="fill:#4e37cc;fill-opacity:1" />
  <circle
     cx="58.816071"
     cy="39.456367"
     r="13.13371"
     fill="#ccc"
     id="circle3"
     style="fill:#162eff;fill-opacity:0.524476" />
  <path
     d="M 361.41192,112.12955 H 52.33199 a 7.00465,7.00465 0 1 1 0,-14.00929 h 309.07993 a 7.00465,7.00465 0 1 1 0,14.00929 z"
     fill="#ccc"
     id="path4"
     style="fill:#f3163a;fill-opacity:1" />
  <path
     d="M 260.72016,82.35981 H 52.33199 a 7.00465,7.00465 0 1 1 0,-14.00929 h 208.38817 a 7.00465,7.00465 0 1 1 0,14.00929 z"
     fill="#ccc"
     id="path5"
     style="fill:#f3163a;fill-opacity:1" />
  <path
     d="m 57.15979,501.72217 a 4.53456,4.53456 0 0 1 -1.64453,-0.31055 4.47537,4.47537 0 0 1 -2.87,-4.19629 v -47.0332 a 6.01163,6.01163 0 0 0 -6.00464,-6.00488 H 37.00928 A 15.02614,15.02614 0 0 1 21.99999,429.168 v -94.5625 a 15.02614,15.02614 0 0 1 15.00928,-15.00928 h 339.72535 a 15.02615,15.02615 0 0 1 15.00928,15.00928 v 94.5625 a 15.02615,15.02615 0 0 1 -15.00928,15.00928 H 114.51499 a 6.02073,6.02073 0 0 0 -4.42651,1.94726 l -49.62183,54.1333 a 4.4761,4.4761 0 0 1 -3.30686,1.46433 z m -20.15051,-180.126 a 13.024,13.024 0 0 0 -13.00929,13.0093 V 429.168 a 13.024,13.024 0 0 0 13.00928,13.00928 h 9.63134 a 8.0137,8.0137 0 0 1 8.00464,8.00488 v 47.0332 a 2.50251,2.50251 0 0 0 4.34717,1.69092 l 49.62183,-54.1333 a 8.02559,8.02559 0 0 1 5.90075,-2.5957 H 376.73462 A 13.024,13.024 0 0 0 389.7439,429.168 v -94.5625 a 13.024,13.024 0 0 0 -13.00928,-13.00928 z"
     fill="#ccc"
     id="path6"
     style="fill:#4e37cc;fill-opacity:1" />
  <path
     d="m 558.84299,342.35742 a 4.47521,4.47521 0 0 1 -3.30664,-1.46435 l -49.62207,-54.1333 a 6.02039,6.02039 0 0 0 -4.42627,-1.94727 H 239.26843 a 15.02614,15.02614 0 0 1 -15.00927,-15.00928 v -94.5625 a 15.02614,15.02614 0 0 1 15.00927,-15.00927 h 339.72522 a 15.02614,15.02614 0 0 1 15.00928,15.00927 v 94.5625 a 15.02614,15.02614 0 0 1 -15.00928,15.00928 h -9.63135 a 6.01156,6.01156 0 0 0 -6.00463,6.00488 v 47.03321 a 4.474,4.474 0 0 1 -2.87012,4.1958 4.5256,4.5256 0 0 1 -1.64456,0.31103 z M 239.2684,162.23142 a 13.024,13.024 0 0 0 -13.00927,13.00927 v 94.5625 a 13.024,13.024 0 0 0 13.00927,13.00928 h 262.21964 a 8.02441,8.02441 0 0 1 5.90039,2.5957 l 49.62207,54.1333 a 2.50253,2.50253 0 0 0 4.34717,-1.69091 v -47.03318 a 8.01369,8.01369 0 0 1 8.00463,-8.00488 h 9.63135 a 13.024,13.024 0 0 0 13.00928,-13.00928 v -94.5625 a 13.024,13.024 0 0 0 -13.00928,-13.00927 z"
     fill="#3f3d56"
     id="path7"
     style="fill:#f3163a;fill-opacity:1" />
  <circle
     cx="58.816071"
     cy="349.05255"
     r="13.13371"
     fill="#ccc"
     id="circle7"
     style="fill:#162eff;fill-opacity:0.524476" />
  <path
     d="M 361.41192,421.72573 H 52.33199 a 7.00465,7.00465 0 1 1 0,-14.00929 h 309.07993 a 7.004645,7.004645 0 1 1 0,14.00929 z"
     fill="#ccc"
     id="path8"
     style="fill:#f3163a;fill-opacity:1" />
  <path
     d="M 260.72016,391.956 H 52.33199 a 7.00465,7.00465 0 1 1 0,-14.00929 h 208.38817 a 7.00465,7.00465 0 1 1 0,14.00929 z"
     fill="#ccc"
     id="path9"
     style="fill:#f3163a;fill-opacity:1" />
  <circle
     cx="261.07516"
     cy="188.81203"
     r="13.13371"
     fill="#3f3d56"
     id="circle9"
     style="fill:#f3163a;fill-opacity:1" />
  <path
     d="M 563.67099,261.4852 H 254.5911 a 7.00464,7.00464 0 1 1 0,-14.00928 h 309.07989 a 7.00464,7.00464 0 1 1 0,14.00928 z"
     fill="#6c63ff"
     id="path10"
     style="fill:#162eff;fill-opacity:1" />
  <path
     d="M 462.97926,231.71547 H 254.5911 a 7.00465,7.00465 0 1 1 0,-14.00929 h 208.38816 a 7.00465,7.00465 0 1 1 0,14.00929 z"
     fill="#6c63ff"
     id="path11"
     style="fill:#162eff;fill-opacity:1" />
  <path
     d="m 563.53636,360.35872 a 10.05574,10.05574 0 0 1 13.594,-7.27736 l 23.4593,-26.95627 4.98283,17.88869 -23.04128,22.8556 a 10.11027,10.11027 0 0 1 -18.99481,-6.51066 z"
     fill="#ffb8b8"
     id="path12" />
  <circle
     cx="692.29016"
     cy="209.30067"
     r="24.561029"
     fill="#ffb8b8"
     id="circle12" />
  <polygon
     points="641.439,500.085 641.436,547.373 629.177,547.372 623.344,500.084 "
     fill="#ffb8b8"
     id="polygon12"
     transform="translate(22)" />
  <path
     d="m 666.56299,559.25707 -39.53052,-10e-4 v -0.5 a 15.38605,15.38605 0 0 1 15.38648,-15.38623 h 10e-4 l 24.1438,0.001 z"
     fill="#2f2e41"
     id="path13" />
  <polygon
     points="678.439,513.085 678.436,560.373 666.177,560.372 664.479,514.214 "
     fill="#ffb8b8"
     id="polygon13"
     transform="translate(22)" />
  <path
     d="m 703.56299,572.25707 -39.53052,-10e-4 v -0.5 a 15.38605,15.38605 0 0 1 15.38648,-15.38623 h 10e-4 l 24.1438,0.001 z"
     fill="#2f2e41"
     id="path14" />
  <path
     d="m 696.94939,551.74336 -9.54688,-1.124 a 4.51224,4.51224 0 0 1 -3.97388,-4.4043 l -1.78906,-124.33887 a 1.49985,1.49985 0 0 0 -2.91357,-0.47851 l -13.24561,37.39939 0.94727,70.10156 a 4.49832,4.49832 0 0 1 -4.22876,4.55274 l -12.46387,0.52929 a 4.52692,4.52692 0 0 1 -4.74439,-3.9248 l -6.50976,-79.30078 -0.004,-0.0498 9.8772,-82.81933 74.1831,5.36718 -20.59277,174.54888 a 4.50657,4.50657 0 0 1 -4.46631,3.97266 4.40036,4.40036 0 0 1 -0.52856,-0.0313 z"
     fill="#2f2e41"
     id="path15"
     style="fill:#1b0e3d;fill-opacity:1" />
  <path
     d="m 648.67058,375.22773 a 4.47312,4.47312 0 0 1 -2.35474,-3.61816 c 0,0 6.6709,-41.48438 9.11548,-42.2627 l -5.34863,-44.36328 a 40.90923,40.90923 0 0 1 8.78051,-30.49023 39.01332,39.01332 0 0 1 27.03179,-14.48242 q 1.12134,-0.10109 2.23047,-0.1543 a 39.36853,39.36853 0 0 1 33.134,15.082 40.11988,40.11988 0 0 1 7.21949,36.40625 l -2.99976,10.43945 v 72.95606 a 4.55525,4.55525 0 0 1 -1.86182,3.65332 c -9.34106,6.85547 -19.897,9.2793 -30.15551,9.2793 -19.41087,3e-5 -37.7571,-8.67966 -44.79128,-12.44529 z"
     fill="#6c63ff"
     id="path16"
     style="fill:#162eff;fill-opacity:1" />
  <path
     d="M 591.08131,361.87712 578.17889,352.229 a 4.49946,4.49946 0 0 1 -0.59686,-6.67226 l 76.863,-82.47429 a 15.05277,15.05277 0 0 1 19.52126,-2.07545 l 2.1e-4,1.2e-4 a 14.97783,14.97783 0 0 1 1.92528,22.97632 l -78.96379,77.50171 a 4.47169,4.47169 0 0 1 -5.36242,0.70857 4.62136,4.62136 0 0 1 -0.48426,-0.3166 z"
     fill="#6c63ff"
     id="path17"
     style="fill:#162eff;fill-opacity:1" />
  <path
     d="m 689.82989,350.95717 a 10.05578,10.05578 0 0 1 14.7151,-4.60685 l 28.08641,-22.09373 1.54966,18.50493 -26.90897,18.14357 a 10.11027,10.11027 0 0 1 -17.4422,-9.94792 z"
     fill="#ffb8b8"
     id="path18" />
  <path
     d="m 714.96892,359.58223 a 4.46445,4.46445 0 0 1 -3.023,-3.249 l -2.83716,-11.916 a 4.43719,4.43719 0 0 1 1.65039,-4.61231 l 19.08887,-20.64453 -28.07862,-43.2959 a 15.24849,15.24849 0 0 1 -0.46191,-18.626 15.242,15.242 0 0 1 26.29468,2.99414 l 26.104,50.81054 a 23.11846,23.11846 0 0 1 -7.721,29.79493 l -26.67665,17.8203 a 4.46131,4.46131 0 0 1 -2.97046,1.13672 4.54941,4.54941 0 0 1 -1.36914,-0.21289 z"
     fill="#6c63ff"
     id="path19"
     style="fill:#162eff;fill-opacity:1" />
  <path
     d="m 710.48951,231.25775 a 4.39849,4.39849 0 0 1 -6.49318,-2.5649 l -0.0154,-0.0613 c -0.50024,-2.04355 -0.10536,-4.18241 0.0238,-6.28233 0.12919,-2.09992 -0.0886,-4.40488 -1.52657,-5.94066 -2.68052,-2.86288 -7.4138,-1.31231 -11.27146,-2.01917 a 9.51064,9.51064 0 0 1 -7.45268,-10.117 c 0.0525,-0.43662 0.13628,-0.87389 0.23045,-1.31095 a 7.32469,7.32469 0 0 0 -7.65072,-8.82988 c -3.89343,0.24353 -8.091,1.446 -11.32878,-1.42141 a 8.3509,8.3509 0 0 1 -2.05309,-8.99159 c 1.81153,-5.32069 6.99681,-8.12883 12.13466,-9.68478 a 44.5881,44.5881 0 0 1 37.8262,5.99911 c 3.26265,2.2737 6.31357,5.13619 7.71889,8.85636 1.40532,3.72017 0.76213,8.42656 -2.34866,10.904 a 20.12271,20.12271 0 0 1 4.76546,19.52057 c -1.51637,4.98004 -8.85484,9.78616 -12.55896,11.94391 z"
     fill="#2f2e41"
     id="path20" />
  <path
     d="M1021.365,735.5a1.00276,1.00276,0,0,1-1,1h-381a1,1,0,0,1,0-2h381A1.00276,1.00276,0,0,1,1021.365,735.5Z"
     transform="translate(-178.63501 -163.5)"
     fill="#3f3d56"
     id="path21" />
</svg>
